<?xml version="1.0" encoding="utf-8"?>
<!-- Generator: Adobe Illustrator 16.0.4, SVG Export Plug-In . SVG Version: 6.00 Build 0)  -->
<!DOCTYPE svg PUBLIC "-//W3C//DTD SVG 1.1//EN" "http://www.w3.org/Graphics/SVG/1.1/DTD/svg11.dtd">
<svg version="1.1" id="Layer_1" xmlns="http://www.w3.org/2000/svg" xmlns:xlink="http://www.w3.org/1999/xlink" x="0px" y="0px"
	 width="1079.26px" height="1214.939px" viewBox="0 76.144 1079.26 1214.939" enable-background="new 0 76.144 1079.26 1214.939"
	 xml:space="preserve">
<g id="Layer_3">
</g>
<path fill="#F1F1F1" d="M930.41,519.442c-2.429-1.639-4.846-3.292-7.297-4.89c-2.829-1.847-5.638-3.734-8.489-5.549
	c-5.677-3.669-11.369-7.308-17.101-10.881c-2.864-1.786-5.705-3.615-8.589-5.37l-8.634-5.3l-8.642-5.282l-6.754-4.047v-35.363
	h-7.033v35.228l-2.463,1.422l-4.452,2.473c-2.956,1.631-5.87,3.333-8.808,4.995l-10.146,5.786l-7.444,4.246l-17.486,10.216
	c-2.909,1.712-5.839,3.387-8.729,5.131l-4.471,2.68l-2.632,1.52l-66.632-38.471v-35.228h-7.034V478
	c-5.251,3.05-10.486,6.125-15.69,9.256c-5.776,3.494-11.549,6.996-17.24,10.638c-2.85,1.816-5.723,3.59-8.552,5.443l-8.479,5.562
	c-2.796,1.908-5.613,3.775-8.393,5.714c-2.78,1.934-5.554,3.88-8.282,5.906c3.121-1.347,6.192-2.776,9.258-4.216
	c3.068-1.436,6.094-2.944,9.145-4.412l9.057-4.562c3.021-1.521,5.99-3.123,8.987-4.682c6.002-3.107,11.921-6.356,17.835-9.613
	c5.313-2.94,10.594-5.938,15.86-8.959l67.038,38.704l0.122,7.55l0.254,10.123l0.276,10.125c0.076,3.376,0.239,6.751,0.356,10.126
	c0.229,6.75,0.532,13.501,0.872,20.25c0.145,3.375,0.374,6.751,0.56,10.124c0.182,3.375,0.458,6.749,0.683,10.125
	c0-0.005,0.001-0.012,0.001-0.019c0,0.007,0.001,0.014,0.001,0.021c0.098-1.477,0.205-2.952,0.311-4.429
	c0.136-1.896,0.269-3.797,0.368-5.698c0.185-3.373,0.415-6.75,0.562-10.124c0.34-6.75,0.644-13.501,0.873-20.25
	c0.113-3.375,0.278-6.75,0.354-10.126l0.274-10.125l0.254-10.123l0.124-7.55l67.697-39.086l6.601,3.668l8.897,4.842l8.904,4.825
	c2.96,1.623,5.968,3.167,8.946,4.755c5.961,3.177,11.957,6.288,17.975,9.369c2.994,1.562,6.031,3.051,9.049,4.576
	c3.014,1.531,6.074,2.981,9.107,4.474c0-0.001-0.002-0.002-0.004-0.002l0.004,0.001C931.163,519.953,930.788,519.696,930.41,519.442
	z"/>
<path fill="#F1F1F1" d="M649.809,519.442c-2.429-1.639-4.846-3.292-7.296-4.89c-2.831-1.847-5.639-3.734-8.49-5.549
	c-5.676-3.669-11.368-7.308-17.101-10.881c-2.864-1.786-5.705-3.615-8.591-5.37l-8.631-5.3l-8.643-5.282l-6.752-4.047v-35.363
	h-7.035v35.228l-2.463,1.423l-4.451,2.473c-2.954,1.63-5.87,3.332-8.808,4.995l-10.146,5.787l-7.445,4.245l-17.486,10.216
	c-2.908,1.712-5.839,3.388-8.729,5.13l-4.473,2.681l-2.632,1.52l-66.633-38.471V442.76h-7.034v35.242
	c-5.25,3.05-10.486,6.125-15.689,9.255c-5.776,3.496-11.55,6.996-17.242,10.639c-2.849,1.816-5.722,3.588-8.55,5.442l-8.479,5.562
	c-2.795,1.907-5.614,3.775-8.392,5.714c-2.78,1.934-5.554,3.88-8.282,5.906c3.12-1.347,6.191-2.776,9.257-4.216
	c3.066-1.437,6.094-2.943,9.144-4.412l9.056-4.562c3.021-1.521,5.991-3.123,8.988-4.681c6.001-3.108,11.92-6.356,17.833-9.613
	c5.314-2.94,10.594-5.937,15.861-8.959l67.038,38.704l0.122,7.551l0.255,10.124l0.273,10.124c0.075,3.376,0.241,6.751,0.356,10.127
	c0.229,6.749,0.531,13.5,0.872,20.25c0.146,3.373,0.376,6.75,0.562,10.123c0.181,3.375,0.457,6.749,0.682,10.125
	c0-0.004,0.001-0.012,0.001-0.019c0,0.007,0.001,0.015,0.001,0.021c0.098-1.477,0.205-2.953,0.309-4.428
	c0.137-1.899,0.27-3.798,0.37-5.699c0.186-3.372,0.414-6.75,0.56-10.123c0.342-6.751,0.645-13.502,0.872-20.25
	c0.117-3.376,0.281-6.751,0.356-10.127l0.274-10.124l0.254-10.124l0.123-7.551l67.697-39.086l6.6,3.669l8.896,4.843l8.907,4.825
	c2.958,1.623,5.964,3.167,8.944,4.755c5.962,3.176,11.958,6.288,17.977,9.368c2.993,1.562,6.03,3.05,9.047,4.577
	c3.015,1.53,6.075,2.98,9.108,4.474c-0.001-0.001-0.002-0.002-0.003-0.002l0.003,0.001
	C650.562,519.953,650.185,519.696,649.809,519.442z"/>
<path fill="#F1F1F1" d="M371.085,368.03c2.436,1.625,4.86,3.27,7.319,4.855c2.839,1.834,5.656,3.708,8.514,5.51
	c5.693,3.643,11.404,7.254,17.153,10.8c2.873,1.774,5.721,3.592,8.613,5.332l8.658,5.262l8.667,5.242l6.77,4.015l0.166,35.363
	l7.034-0.034l-0.165-35.228l2.458-1.432l4.44-2.495c2.948-1.645,5.855-3.36,8.784-5.035l10.12-5.836l7.423-4.28l17.44-10.297
	c2.9-1.727,5.822-3.415,8.703-5.172l4.457-2.7l2.628-1.533l66.809,38.16l0.165,35.228l7.036-0.033l-0.167-35.242
	c5.238-3.075,10.459-6.173,15.646-9.328c5.761-3.521,11.518-7.05,17.195-10.718c2.838-1.829,5.704-3.615,8.522-5.483l8.455-5.603
	c2.785-1.92,5.594-3.801,8.364-5.754c2.773-1.946,5.536-3.904,8.253-5.945c-3.111,1.363-6.176,2.806-9.236,4.262
	c-3.062,1.45-6.082,2.971-9.126,4.453l-9.033,4.605c-3.015,1.535-5.979,3.151-8.969,4.724c-5.985,3.136-11.889,6.413-17.787,9.697
	c-5.3,2.964-10.565,5.985-15.818,9.032l-67.218-38.393l-0.157-7.549l-0.303-10.123l-0.321-10.123
	c-0.09-3.375-0.271-6.75-0.401-10.124c-0.262-6.749-0.595-13.498-0.967-20.246c-0.16-3.375-0.406-6.748-0.607-10.122
	c-0.197-3.374-0.489-6.747-0.73-10.122c0,0.006-0.001,0.012-0.001,0.019c0-0.007-0.001-0.014-0.001-0.021
	c-0.09,1.478-0.191,2.955-0.288,4.43c-0.126,1.9-0.251,3.799-0.343,5.699c-0.17,3.374-0.382,6.752-0.514,10.127
	c-0.309,6.75-0.58,13.504-0.776,20.254c-0.101,3.374-0.25,6.75-0.311,10.127l-0.228,10.127l-0.207,10.125l-0.087,7.55
	l-67.516,39.401l-6.615-3.638l-8.92-4.801l-8.929-4.783c-2.967-1.609-5.979-3.139-8.967-4.714
	c-5.976-3.148-11.988-6.233-18.018-9.285c-3.002-1.548-6.046-3.023-9.071-4.536c-3.021-1.516-6.088-2.95-9.13-4.43
	c0.001,0.001,0.002,0.001,0.005,0.002l-0.005-0.001C370.33,367.523,370.707,367.777,371.085,368.03z"/>
<path fill="#F1F1F1" d="M651.155,367.777c2.437,1.626,4.862,3.27,7.318,4.855c2.841,1.835,5.658,3.708,8.515,5.508
	c5.696,3.645,11.405,7.255,17.154,10.801c2.872,1.774,5.719,3.59,8.612,5.33l8.657,5.261l8.666,5.243l6.772,4.015l0.164,35.363
	l7.035-0.032l-0.165-35.228l2.457-1.434l4.44-2.495c2.947-1.645,5.854-3.36,8.784-5.036l10.119-5.834l7.424-4.28l17.438-10.298
	c2.901-1.726,5.824-3.415,8.704-5.172l4.459-2.7l2.626-1.532l66.81,38.161l0.165,35.226l7.034-0.034l-0.164-35.24
	c5.235-3.075,10.456-6.172,15.646-9.328c5.759-3.521,11.516-7.05,17.191-10.719c2.839-1.83,5.703-3.616,8.525-5.483l8.453-5.603
	c2.787-1.921,5.596-3.802,8.366-5.753c2.77-1.947,5.535-3.906,8.253-5.947c-3.114,1.362-6.179,2.806-9.239,4.262
	c-3.06,1.45-6.08,2.972-9.122,4.453l-9.035,4.604c-3.014,1.536-5.977,3.152-8.967,4.724c-5.986,3.136-11.891,6.413-17.789,9.696
	c-5.298,2.965-10.566,5.987-15.817,9.034l-67.218-38.393l-0.157-7.549l-0.302-10.124l-0.322-10.124
	c-0.093-3.374-0.271-6.749-0.403-10.123c-0.261-6.75-0.597-13.5-0.966-20.248c-0.163-3.373-0.406-6.748-0.608-10.122
	c-0.196-3.373-0.49-6.746-0.729-10.122c0,0.007-0.002,0.012-0.002,0.02c0-0.007-0.001-0.014-0.001-0.021
	c-0.091,1.477-0.191,2.954-0.289,4.431c-0.127,1.899-0.25,3.8-0.344,5.699c-0.168,3.375-0.382,6.751-0.513,10.126
	c-0.312,6.752-0.581,13.504-0.777,20.255c-0.101,3.375-0.25,6.751-0.309,10.126l-0.229,10.126l-0.206,10.125l-0.088,7.55
	l-67.515,39.401l-6.618-3.638l-8.921-4.801l-8.927-4.784c-2.969-1.608-5.979-3.138-8.967-4.713
	c-5.978-3.149-11.986-6.234-18.02-9.287c-3.002-1.547-6.043-3.022-9.07-4.534c-3.021-1.517-6.088-2.951-9.129-4.43
	c0.002,0,0.003,0.001,0.004,0.002l-0.004-0.002C650.401,367.27,650.779,367.524,651.155,367.777z"/>
<path fill="#F1F1F1" d="M520.486,1060.167l8.64-5.283l8.632-5.3c2.886-1.753,5.727-3.582,8.592-5.369
	c5.729-3.573,11.426-7.213,17.101-10.881c2.848-1.815,5.656-3.703,8.486-5.55c2.452-1.598,4.87-3.25,7.3-4.892
	c0.376-0.252,0.752-0.508,1.13-0.762c0,0.003-0.005,0.003-0.005,0.003s0.005-0.003,0.005-0.005
	c-3.035,1.497-6.097,2.944-9.109,4.475c-3.016,1.528-6.054,3.016-9.05,4.577c-6.015,3.08-12.014,6.193-17.974,9.37
	c-2.98,1.587-5.985,3.135-8.946,4.754l-8.905,4.826l-8.897,4.841l-6.601,3.67l-67.698-39.088l-0.123-7.55l-0.254-10.124
	l-0.273-10.125c-0.077-3.374-0.241-6.751-0.356-10.124c-0.228-6.749-0.531-13.502-0.873-20.253
	c-0.145-3.373-0.374-6.746-0.56-10.125c-0.047-0.869-0.111-1.742-0.168-2.612c-0.164-2.501-0.346-5.007-0.511-7.512
	c0,0.008-0.001,0.014-0.001,0.021c0-0.008,0-0.014,0-0.02c-0.226,3.374-0.501,6.75-0.682,10.122
	c-0.187,3.379-0.415,6.752-0.561,10.125c-0.342,6.752-0.645,13.505-0.875,20.253c-0.116,3.373-0.278,6.75-0.355,10.124
	l-0.274,10.125l-0.254,10.124l-0.124,7.55l-67.036,38.706c-5.268-3.021-10.548-6.021-15.86-8.961
	c-5.914-3.255-11.834-6.506-17.833-9.612c-2.999-1.558-5.97-3.164-8.99-4.68l-9.059-4.565c-3.048-1.467-6.075-2.975-9.145-4.41
	c-3.064-1.441-6.138-2.87-9.256-4.217c2.729,2.028,5.501,3.973,8.281,5.905c2.778,1.94,5.597,3.81,8.393,5.715l8.48,5.565
	c2.827,1.852,5.701,3.623,8.549,5.441c5.692,3.64,11.465,7.141,17.242,10.636c5.203,3.132,10.439,6.204,15.689,9.256v76.968
	c-5.251,3.053-10.487,6.127-15.69,9.257c-5.776,3.495-11.549,6.994-17.241,10.639c-2.849,1.815-5.722,3.59-8.55,5.443l-8.479,5.562
	c-2.796,1.906-5.614,3.774-8.393,5.716c-2.78,1.933-5.554,3.88-8.281,5.907c3.119-1.351,6.191-2.78,9.257-4.222
	c3.067-1.434,6.096-2.942,9.145-4.41l9.057-4.559c3.019-1.522,5.99-3.126,8.987-4.684c6.002-3.106,11.92-6.36,17.834-9.614
	c5.314-2.938,10.593-5.938,15.86-8.96l67.038,38.707l0.123,7.55l0.254,10.123l0.274,10.123c0.076,3.377,0.241,6.751,0.356,10.126
	c0.229,6.75,0.532,13.503,0.874,20.25c0.145,3.375,0.374,6.752,0.561,10.124c0.181,3.375,0.457,6.75,0.681,10.126
	c0-0.007,0-0.014,0-0.019c0,0.005,0.001,0.014,0.001,0.019c0.098-1.475,0.204-2.952,0.31-4.429c0.136-1.897,0.268-3.798,0.37-5.697
	c0.185-3.372,0.414-6.749,0.561-10.124c0.34-6.748,0.643-13.501,0.872-20.25c0.116-3.375,0.281-6.749,0.355-10.126l0.274-10.123
	l0.255-10.123l0.122-7.55l67.698-39.088l6.599,3.667l8.897,4.844l8.907,4.823c2.959,1.625,5.965,3.168,8.946,4.757
	c5.96,3.177,11.957,6.291,17.974,9.369c2.996,1.562,6.032,3.05,9.05,4.577c3.013,1.531,6.075,2.98,9.107,4.472
	c0,0-0.003,0-0.003-0.002l0.003,0.002c-0.376-0.253-0.752-0.509-1.128-0.762c-2.431-1.639-4.847-3.291-7.3-4.892
	c-2.83-1.846-5.638-3.734-8.488-5.546c-5.677-3.67-11.371-7.31-17.101-10.882c-2.864-1.787-5.704-3.616-8.591-5.37l-8.631-5.299
	l-8.643-5.286l-6.753-4.047v-77.209L520.486,1060.167z M440.066,1179.76l-66.632-38.469v-76.938l66.632-38.474l2.614,1.512
	l4.488,2.689c2.89,1.746,5.821,3.42,8.73,5.13l17.484,10.217l11.991,6.837l5.602,3.195c2.937,1.662,5.851,3.365,8.808,4.996
	l4.433,2.461l2.481,1.436v76.938l-2.463,1.421l-4.452,2.474c-2.954,1.632-5.871,3.33-8.808,4.994l-10.146,5.79l-7.444,4.241
	l-17.485,10.219c-2.909,1.713-5.839,3.385-8.729,5.133l-4.47,2.678L440.066,1179.76z"/>
<path fill="#F1F1F1" d="M239.884,1060.167l8.641-5.283l8.632-5.3c2.885-1.753,5.726-3.582,8.591-5.369
	c5.73-3.573,11.425-7.213,17.1-10.881c2.851-1.815,5.66-3.703,8.489-5.55c2.451-1.598,4.868-3.25,7.296-4.892
	c0.376-0.252,0.752-0.508,1.13-0.762c0,0.003-0.001,0.003-0.001,0.003s0.001-0.003,0.001-0.005
	c-3.035,1.497-6.096,2.944-9.107,4.475c-3.017,1.528-6.053,3.016-9.049,4.577c-6.017,3.08-12.014,6.193-17.976,9.37
	c-2.979,1.587-5.984,3.135-8.946,4.754l-8.905,4.826l-8.896,4.841l-6.602,3.67l-67.698-39.088l-0.125-7.55l-0.253-10.124
	l-0.274-10.125c-0.077-3.374-0.241-6.751-0.357-10.124c-0.228-6.749-0.53-13.502-0.873-20.253c-0.144-3.373-0.374-6.746-0.56-10.125
	c-0.047-0.869-0.111-1.742-0.168-2.612c-0.163-2.501-0.346-5.007-0.511-7.512c0,0.008-0.001,0.014-0.001,0.021
	c0-0.008-0.001-0.014-0.001-0.02c-0.226,3.374-0.501,6.75-0.682,10.122c-0.187,3.379-0.416,6.752-0.561,10.125
	c-0.341,6.752-0.643,13.505-0.873,20.253c-0.117,3.373-0.28,6.75-0.355,10.124l-0.275,10.125l-0.254,10.124l-0.124,7.55
	l-36.432,22.021v8.127l39.555-23.826l2.617,1.511l4.486,2.691c2.891,1.744,5.821,3.42,8.73,5.129l17.484,10.218l11.991,6.837
	l5.601,3.194c2.938,1.663,5.852,3.365,8.808,4.995l4.433,2.461l2.481,1.436v76.938l-2.464,1.422l-4.451,2.472
	c-2.956,1.631-5.871,3.331-8.808,4.996l-10.146,5.788l-7.443,4.243l-17.485,10.218c-2.909,1.713-5.839,3.386-8.729,5.134
	l-4.472,2.678l-2.633,1.52l-39.555-23.823v8.127l36.433,22.02l0.123,7.552l0.254,10.123l0.275,10.124
	c0.075,3.377,0.239,6.749,0.356,10.126c0.229,6.75,0.531,13.502,0.872,20.25c0.146,3.374,0.375,6.752,0.561,10.123
	c0.181,3.375,0.457,6.75,0.681,10.126c0-0.006,0.002-0.014,0.002-0.018c0,0.004,0.001,0.014,0.001,0.018
	c0.098-1.474,0.204-2.952,0.308-4.428c0.138-1.899,0.27-3.798,0.37-5.698c0.186-3.371,0.416-6.749,0.562-10.123
	c0.341-6.751,0.643-13.501,0.871-20.25c0.116-3.377,0.282-6.749,0.356-10.126l0.275-10.124l0.254-10.123l0.123-7.552l67.698-39.086
	l6.601,3.668l8.898,4.844l8.905,4.823c2.959,1.623,5.966,3.167,8.946,4.757c5.96,3.174,11.958,6.289,17.975,9.369
	c2.995,1.562,6.032,3.05,9.049,4.576c3.014,1.532,6.073,2.981,9.107,4.473c-0.378-0.254-0.753-0.51-1.13-0.763
	c-2.43-1.639-4.846-3.29-7.296-4.891c-2.83-1.847-5.638-3.734-8.489-5.548c-5.676-3.669-11.37-7.308-17.102-10.88
	c-2.865-1.788-5.705-3.616-8.589-5.37l-8.632-5.302l-8.641-5.284l-6.753-4.046v-77.209L239.884,1060.167z"/>
<line fill="none" stroke="#FAAE3B" stroke-width="3" stroke-miterlimit="10" x1="441.462" y1="801.358" x2="512.274" y2="840.751"/>
<path fill="#F1F1F1" d="M1012.393,961.104l8.639-5.283l8.634-5.3c2.885-1.753,5.726-3.582,8.591-5.369
	c5.73-3.574,11.425-7.21,17.099-10.883c2.854-1.812,5.66-3.697,8.491-5.546c2.45-1.598,4.867-3.253,7.298-4.889
	c0.375-0.257,0.752-0.513,1.129-0.766c-0.001,0-0.003,0.004-0.004,0.006c0.001-0.006,0.003-0.006,0.004-0.006
	c-3.034,1.493-6.095,2.944-9.11,4.474c-3.015,1.526-6.053,3.015-9.048,4.576c-6.016,3.08-12.013,6.193-17.975,9.37
	c-2.979,1.589-5.984,3.132-8.945,4.756l-8.906,4.824l-8.895,4.844l-6.602,3.667l-67.697-39.086l-0.123-7.55l-0.254-10.126
	l-0.274-10.123c-0.077-3.377-0.239-6.752-0.358-10.126c-0.227-6.749-0.527-13.502-0.872-20.251
	c-0.143-3.373-0.373-6.748-0.558-10.124c-0.048-0.87-0.111-1.743-0.168-2.615c-0.165-2.505-0.348-5.006-0.512-7.51
	c0,0.005-0.002,0.012-0.002,0.02c0-0.005-0.002-0.015-0.002-0.02c-0.224,3.374-0.5,6.75-0.682,10.125
	c-0.186,3.376-0.414,6.751-0.562,10.124c-0.34,6.75-0.644,13.503-0.874,20.251c-0.113,3.374-0.276,6.749-0.354,10.125l-0.273,10.124
	l-0.254,10.126l-0.123,7.55l-67.035,38.705c-5.269-3.024-10.549-6.022-15.862-8.96c-5.915-3.254-11.833-6.505-17.834-9.615
	c-2.998-1.557-5.969-3.16-8.988-4.683l-9.059-4.56c-3.049-1.467-6.076-2.977-9.146-4.41c-3.064-1.443-6.137-2.871-9.256-4.219
	c2.729,2.025,5.502,3.973,8.283,5.905c2.775,1.941,5.595,3.81,8.392,5.716l8.481,5.562c2.826,1.856,5.699,3.629,8.547,5.443
	c5.692,3.645,11.466,7.144,17.243,10.639c5.202,3.133,10.44,6.205,15.688,9.256v76.972c-5.248,3.049-10.487,6.119-15.688,9.254
	c-5.776,3.494-11.548,6.994-17.242,10.636c-2.848,1.818-5.722,3.59-8.548,5.443l-8.48,5.564c-2.797,1.906-5.614,3.772-8.392,5.712
	c-2.78,1.935-5.555,3.88-8.283,5.909c3.119-1.349,6.191-2.778,9.26-4.219c3.065-1.438,6.093-2.943,9.143-4.41l9.058-4.562
	c3.021-1.52,5.989-3.124,8.987-4.683c6.002-3.11,11.92-6.355,17.833-9.612c5.315-2.94,10.596-5.938,15.862-8.962l67.038,38.707
	l0.122,7.55l0.255,10.124l0.273,10.126c0.076,3.373,0.241,6.752,0.358,10.125c0.228,6.747,0.529,13.5,0.869,20.25
	c0.147,3.374,0.375,6.749,0.562,10.123c0.181,3.377,0.458,6.75,0.684,10.123c0-0.004,0-0.008,0-0.018
	c0,0.01,0.002,0.014,0.002,0.021c0.097-1.479,0.204-2.953,0.309-4.43c0.134-1.897,0.268-3.799,0.369-5.697
	c0.185-3.374,0.415-6.749,0.561-10.123c0.342-6.753,0.643-13.504,0.87-20.25c0.118-3.373,0.28-6.752,0.358-10.125l0.274-10.126
	l0.254-10.124l0.123-7.55l67.696-39.086l6.602,3.668l8.896,4.841l8.906,4.826c2.959,1.621,5.966,3.168,8.944,4.754
	c5.962,3.175,11.958,6.291,17.976,9.37c2.994,1.562,6.031,3.051,9.047,4.575c3.017,1.532,6.076,2.981,9.11,4.476
	c0-0.003-0.002-0.003-0.004-0.003c0.001,0,0.004,0,0.004,0c-0.377-0.25-0.754-0.51-1.13-0.762c-2.43-1.637-4.846-3.289-7.297-4.889
	c-2.83-1.847-5.638-3.733-8.489-5.546c-5.678-3.671-11.369-7.31-17.103-10.882c-2.864-1.788-5.704-3.618-8.588-5.373l-8.633-5.299
	l-8.642-5.283l-6.754-4.047v-77.21L1012.393,961.104z M931.972,1080.698l-66.633-38.473V965.29l66.633-38.469l2.615,1.509
	l4.487,2.686c2.892,1.747,5.822,3.42,8.731,5.134l17.484,10.218l11.991,6.834l5.602,3.197c2.937,1.662,5.851,3.362,8.808,4.994
	l4.432,2.464l2.482,1.433v76.937l-2.464,1.426l-4.45,2.471c-2.957,1.633-5.871,3.334-8.809,4.996l-10.146,5.786l-7.444,4.248
	l-17.486,10.213c-2.909,1.714-5.839,3.388-8.73,5.134l-4.469,2.681L931.972,1080.698z"/>
<g>
	<g>
		<polygon fill="none" stroke="#BF272D" stroke-width="5" stroke-miterlimit="10" points="721.686,723.254 791.833,682.754 
			861.981,723.254 861.981,804.256 791.833,844.759 721.686,804.256 		"/>
		<g>
			<path fill="#BF272D" d="M932.132,683.067c-2.83,1.849-5.637,3.736-8.484,5.556c-2.848,1.82-5.672,3.675-8.534,5.468
				c-5.705,3.621-11.423,7.216-17.173,10.757l-8.621,5.322l-8.653,5.261l-8.66,5.251l-8.7,5.181l-1.283,0.766l-1.366-0.766
				c-5.891-3.297-11.794-6.571-17.643-9.945l-17.585-10.045l-17.492-10.202c-2.913-1.708-5.841-3.384-8.734-5.119l-8.701-5.183
				l-1.348-0.807l0.021-1.497l0.138-10.124l0.215-10.126l0.229-10.124c0.064-3.376,0.201-6.751,0.299-10.126
				c0.191-6.748,0.445-13.501,0.731-20.25c0.123-3.374,0.316-6.752,0.471-10.125c0.152-3.375,0.385-6.751,0.57-10.124
				c0.189,3.373,0.421,6.75,0.573,10.124c0.156,3.373,0.348,6.751,0.471,10.125c0.284,6.75,0.538,13.502,0.73,20.25
				c0.097,3.375,0.236,6.75,0.299,10.126l0.23,10.124l0.215,10.126l0.138,10.124l-1.328-2.3l8.839,4.941
				c2.95,1.642,5.866,3.34,8.802,5.005l17.581,10.051l17.493,10.206c5.842,3.378,11.632,6.853,17.432,10.307h-2.647l8.836-4.943
				l8.878-4.877l8.882-4.862l8.919-4.805c5.94-3.211,11.915-6.362,17.902-9.492c2.983-1.585,6.003-3.105,9.003-4.656
				C926.079,686.082,929.116,684.594,932.132,683.067z"/>
		</g>
		<g>
			<path fill="#BF272D" d="M651.533,682.754c3.017,1.526,6.055,3.015,9.054,4.569c3,1.554,6.021,3.075,9.003,4.656
				c5.987,3.13,11.961,6.282,17.903,9.495l8.918,4.801l8.884,4.865l8.876,4.873l8.838,4.945l1.304,0.728l0.021,1.566
				c0.091,6.749,0.206,13.502,0.21,20.251l0.092,20.249l-0.089,20.25c-0.025,3.374-0.011,6.749-0.066,10.127l-0.139,10.122
				l-0.022,1.57l-1.306,0.731l-8.839,4.942l-8.876,4.879l-8.884,4.861c-2.954,1.634-5.945,3.202-8.919,4.805
				c-5.94,3.208-11.915,6.364-17.904,9.489c-2.981,1.582-6.002,3.104-9.004,4.656c-2.998,1.555-6.036,3.042-9.055,4.567
				c2.83-1.849,5.636-3.739,8.484-5.56c2.844-1.821,5.673-3.676,8.533-5.469c5.703-3.623,11.421-7.219,17.173-10.76
				c2.873-1.771,5.729-3.577,8.619-5.322l8.653-5.262l8.663-5.247l8.698-5.183l-1.327,2.298l-0.14-10.123
				c-0.056-3.376-0.042-6.751-0.066-10.126l-0.088-20.25l0.091-20.248c0.005-6.75,0.12-13.503,0.21-20.252l1.323,2.293l-8.699-5.181
				l-8.66-5.249l-8.655-5.263l-8.619-5.32c-5.751-3.539-11.468-7.138-17.173-10.756c-2.861-1.792-5.688-3.647-8.534-5.468
				C657.171,686.49,654.362,684.604,651.533,682.754z"/>
		</g>
		<g>
			<path fill="#BF272D" d="M791.833,843.188c2.761-1.97,5.558-3.872,8.361-5.767c2.801-1.897,5.637-3.737,8.454-5.607l8.527-5.48
				c2.84-1.832,5.726-3.587,8.585-5.383c5.719-3.595,11.498-7.085,17.287-10.557c5.794-3.467,11.619-6.876,17.458-10.263
				l1.476-0.856l1.479,0.856c5.841,3.382,11.666,6.791,17.461,10.257c5.786,3.477,11.573,6.957,17.289,10.556
				c2.86,1.797,5.742,3.556,8.584,5.382l8.527,5.483c2.816,1.873,5.65,3.712,8.453,5.609c2.803,1.896,5.6,3.8,8.357,5.772
				c-3.086-1.403-6.134-2.873-9.176-4.354c-3.045-1.476-6.056-3.012-9.084-4.517l-9.012-4.641c-3.004-1.548-5.969-3.165-8.953-4.745
				c-5.976-3.151-11.883-6.42-17.786-9.694c-5.897-3.285-11.762-6.626-17.612-9.995h2.952c-5.853,3.365-11.719,6.706-17.617,9.989
				c-5.902,3.277-11.814,6.536-17.787,9.692c-2.984,1.578-5.946,3.199-8.952,4.743l-9.013,4.644
				c-3.027,1.504-6.036,3.042-9.081,4.519C797.967,840.313,794.919,841.783,791.833,843.188z"/>
		</g>
	</g>
</g>
<g>
	<g>
		<g>
			<path fill="#FAAE3B" d="M300.783,560.61c-2.83,1.85-5.637,3.734-8.485,5.554c-2.845,1.822-5.67,3.677-8.533,5.469
				c-5.704,3.62-11.422,7.218-17.173,10.756l-8.62,5.324l-8.654,5.259l-8.661,5.25l-8.699,5.184l-1.282,0.763l-1.367-0.763
				c-5.891-3.296-11.795-6.571-17.643-9.943l-17.584-10.046l-17.493-10.204c-2.912-1.708-5.841-3.383-8.736-5.121l-8.699-5.183
				l-1.349-0.802l0.02-1.499l0.139-10.126l0.213-10.125l0.231-10.124c0.063-3.375,0.201-6.751,0.299-10.126
				c0.192-6.749,0.446-13.5,0.733-20.249c0.122-3.375,0.314-6.75,0.47-10.126c0.153-3.375,0.384-6.749,0.572-10.124
				c0.188,3.375,0.419,6.749,0.571,10.124c0.156,3.376,0.348,6.752,0.47,10.126c0.288,6.75,0.542,13.501,0.734,20.249
				c0.098,3.375,0.235,6.752,0.299,10.126l0.23,10.124L163,550.481l0.139,10.126l-1.329-2.302l8.837,4.945
				c2.951,1.64,5.868,3.337,8.802,5.004l17.582,10.049l17.492,10.205c5.845,3.379,11.632,6.854,17.434,10.31h-2.649l8.837-4.944
				l8.876-4.876l8.882-4.865l8.918-4.801c5.94-3.212,11.915-6.365,17.902-9.494c2.983-1.584,6.002-3.102,9.003-4.657
				C294.729,563.625,297.766,562.135,300.783,560.61z"/>
		</g>
		<g>
			<path fill="#FAAE3B" d="M90.333,600.797c0.327,3.373,0.576,6.752,0.813,10.126c0.245,3.374,0.417,6.75,0.628,10.123l0.484,10.126
				c0.167,3.375,0.243,6.749,0.369,10.123c0.255,6.752,0.388,13.502,0.498,20.253c0.107,6.749,0.146,13.499,0.157,20.25l0.004,1.702
				l-1.479,0.854c-5.85,3.368-11.716,6.707-17.614,9.994c-5.904,3.272-11.81,6.545-17.786,9.695
				c-2.986,1.577-5.95,3.194-8.953,4.742l-9.012,4.646c-3.029,1.5-6.04,3.036-9.084,4.513c-3.042,1.48-6.091,2.953-9.178,4.356
				c2.757-1.974,5.557-3.878,8.359-5.771c2.801-1.898,5.638-3.739,8.454-5.61l8.528-5.483c2.841-1.827,5.724-3.588,8.585-5.383
				c5.716-3.601,11.5-7.081,17.29-10.556c5.794-3.465,11.62-6.873,17.462-10.256l-1.476,2.557c0.012-6.752,0.05-13.503,0.157-20.25
				c0.112-6.752,0.244-13.502,0.499-20.253c0.125-3.374,0.203-6.748,0.369-10.124l0.484-10.125c0.211-3.374,0.384-6.75,0.628-10.124
				C89.757,607.549,90.006,604.172,90.333,600.797z"/>
		</g>
		<g>
			<path fill="#FAAE3B" d="M160.484,802.987c-0.187-3.376-0.417-6.753-0.568-10.127c-0.154-3.375-0.347-6.749-0.467-10.124
				c-0.284-6.752-0.54-13.501-0.73-20.249l-0.298-10.126l-0.229-10.126l-0.216-10.124l-0.139-10.126l-0.021-1.493l1.346-0.801
				c5.801-3.453,11.588-6.93,17.432-10.311l17.492-10.202l17.58-10.047c2.935-1.669,5.852-3.366,8.802-5.006l8.839-4.943l1.37-0.766
				l1.286,0.766l8.7,5.184l8.662,5.247l8.653,5.262c2.892,1.744,5.746,3.551,8.62,5.321c5.75,3.541,11.467,7.137,17.17,10.761
				c2.862,1.792,5.689,3.647,8.534,5.47c2.846,1.819,5.654,3.706,8.483,5.556c-3.018-1.524-6.055-3.011-9.055-4.567
				c-3.001-1.552-6.02-3.073-9.004-4.654c-5.989-3.124-11.961-6.28-17.904-9.489c-2.972-1.603-5.963-3.172-8.918-4.804l-8.884-4.862
				l-8.875-4.877l-8.837-4.944h2.656l-8.7,5.185c-2.894,1.735-5.824,3.411-8.734,5.121l-17.493,10.2l-17.583,10.045
				c-5.849,3.373-11.751,6.648-17.642,9.945l1.325-2.295l-0.139,10.126l-0.216,10.124l-0.229,10.126l-0.298,10.126
				c-0.192,6.749-0.447,13.499-0.73,20.249c-0.121,3.375-0.314,6.749-0.467,10.124C160.901,796.235,160.671,799.611,160.484,802.987
				z"/>
		</g>
		<polygon fill="none" stroke="#FAAE3B" stroke-width="5" stroke-miterlimit="10" points="90.333,600.797 160.482,560.294 
			230.63,600.797 230.63,681.801 160.482,722.302 90.333,681.801 		"/>
	</g>
	<g>
		<g opacity="0.3">
			<path d="M150.244,688.883"/>
		</g>
		<g>
			<g>
				<path fill="#969696" d="M150.244,686.52"/>
			</g>
		</g>
	</g>
</g>
<polyline fill="none" stroke="#BF272D" stroke-width="3" stroke-miterlimit="10" points="933.815,923.271 1003.967,963.773 
	1003.967,1284.428 "/>
<polyline fill="none" stroke="#BF272D" stroke-width="3" stroke-miterlimit="10" points="511.233,841.919 581.383,801.418 
	651.533,841.919 651.533,922.922 721.686,963.109 791.835,922.922 791.835,841.919 "/>
<polyline fill="none" stroke="#FAAE3B" stroke-width="3" stroke-miterlimit="10" points="230.63,681.801 300.783,721.982 
	370.934,681.801 441.083,721.982 441.082,801.418 "/>
<path fill="none" stroke="#FAAE3B" stroke-width="3" stroke-miterlimit="10" d="M22.115,279.449l-0.87,281.95
	c0,0,45.891,26.903,69.628,39.563"/>
<polyline fill="none" stroke="#BF272D" stroke-width="3" stroke-miterlimit="10" points="861.983,801.418 932.134,844.666 
	932.132,922.922 "/>
<g>
	<path fill="#FAAE3B" d="M101.614,600.963c0,5.931-4.809,10.74-10.741,10.74c-5.931,0-10.74-4.809-10.74-10.74
		c0-5.935,4.809-10.742,10.74-10.742C96.805,590.221,101.614,595.028,101.614,600.963z"/>
	<circle fill="#F1F1F1" cx="90.873" cy="600.963" r="6.643"/>
</g>
<g>
	<circle fill="#FAAE3B" cx="511.427" cy="839.566" r="10.74"/>
	<circle fill="#F1F1F1" cx="511.427" cy="839.566" r="6.643"/>
</g>
<g>
	<circle fill="#BF272D" cx="932.132" cy="922.607" r="10.742"/>
	<circle fill="#F1F1F1" cx="932.132" cy="922.606" r="6.644"/>
</g>
<line fill="none" x1="589.321" y1="796.692" x2="522.286" y2="835.394"/>
<line fill="none" x1="589.321" y1="796.692" x2="522.286" y2="835.394"/>
<path fill="#F1F1F1" d="M580.109,172.323v72.454l-6.337,3.797l-8.109,4.958l-8.101,4.975c-2.707,1.644-5.371,3.361-8.061,5.04
	c-5.379,3.354-10.723,6.767-16.05,10.211c-2.674,1.703-5.311,3.472-7.967,5.206c-2.3,1.5-4.566,3.053-6.846,4.59
	c-0.354,0.238-0.708,0.478-1.062,0.716c0.001-0.001,0.002-0.001,0.004-0.001c-0.001,0-0.002,0.001-0.004,0.002
	c2.849-1.403,5.719-2.761,8.548-4.199c2.832-1.431,5.681-2.83,8.489-4.295c5.651-2.891,11.278-5.812,16.87-8.792
	c2.798-1.489,5.617-2.94,8.396-4.461l8.357-4.528l8.348-4.544l6.194-3.442l63.532,36.678l0.113,7.084l0.24,9.5l0.257,9.501
	c0.072,3.167,0.226,6.336,0.334,9.502c0.217,6.333,0.501,12.669,0.819,19.003c0.137,3.167,0.352,6.333,0.525,9.5
	c0.096,1.782,0.219,3.565,0.349,5.347c0.097,1.385,0.196,2.77,0.289,4.157c0-0.008,0.001-0.014,0.001-0.021
	c0,0.007,0.001,0.013,0.001,0.017c0.211-3.168,0.468-6.333,0.64-9.501c0.173-3.167,0.389-6.334,0.524-9.5
	c0.321-6.335,0.604-12.67,0.818-19.003c0.11-3.166,0.264-6.335,0.334-9.502l0.258-9.501l0.238-9.5l0.115-7.084l62.911-36.322
	c4.942,2.835,9.897,5.648,14.885,8.408c5.55,3.055,11.104,6.104,16.735,9.02c2.812,1.462,5.601,2.969,8.436,4.394l8.499,4.282
	c2.861,1.378,5.704,2.792,8.581,4.141c2.878,1.351,5.762,2.692,8.688,3.958c-2.561-1.903-5.162-3.73-7.772-5.543
	c-2.606-1.819-5.25-3.572-7.876-5.361l-7.955-5.221c-2.653-1.74-5.351-3.403-8.026-5.109c-5.34-3.416-10.756-6.701-16.179-9.982
	c-4.883-2.938-9.793-5.822-14.723-8.685v-72.227c4.928-2.863,9.839-5.748,14.722-8.686c5.424-3.279,10.84-6.564,16.18-9.984
	c2.676-1.703,5.373-3.367,8.023-5.108l7.958-5.217c2.626-1.791,5.271-3.542,7.876-5.364c2.61-1.813,5.212-3.641,7.772-5.542
	c-2.927,1.265-5.811,2.606-8.685,3.96c-2.881,1.345-5.723,2.761-8.583,4.138l-8.501,4.279c-2.833,1.429-5.623,2.932-8.435,4.396
	c-5.631,2.914-11.186,5.965-16.737,9.02c-4.985,2.758-9.94,5.57-14.885,8.407l-62.907-36.319l-0.117-7.087l-0.238-9.501
	l-0.258-9.501c-0.071-3.166-0.223-6.332-0.332-9.5c-0.217-6.334-0.501-12.67-0.82-19.002c-0.138-3.169-0.35-6.336-0.524-9.501
	c-0.172-3.169-0.428-6.335-0.64-9.503c0,0.006-0.001,0.013-0.001,0.02c0-0.008-0.001-0.014-0.001-0.02
	c-0.157,2.351-0.326,4.699-0.479,7.048c-0.054,0.817-0.114,1.636-0.158,2.455c-0.173,3.165-0.389,6.333-0.524,9.501
	c-0.32,6.333-0.604,12.668-0.819,19.002c-0.109,3.168-0.263,6.335-0.336,9.5l-0.255,9.501l-0.238,9.501l-0.116,7.086l-63.532,36.679
	l-6.194-3.443l-8.347-4.546l-8.357-4.526c-2.779-1.523-5.598-2.973-8.396-4.461c-5.593-2.981-11.22-5.903-16.868-8.793
	c-2.811-1.464-5.66-2.861-8.49-4.295c-2.827-1.435-5.701-2.795-8.549-4.197c0.001,0,0.002,0,0.004,0.002
	c-0.001-0.001-0.002-0.002-0.004-0.002c0.354,0.237,0.708,0.479,1.062,0.716c2.28,1.536,4.546,3.09,6.847,4.588
	c2.656,1.735,5.293,3.504,7.966,5.206c5.327,3.445,10.67,6.858,16.048,10.211c2.69,1.677,5.354,3.393,8.062,5.04l8.101,4.972
	l8.108,4.958L580.109,172.323z M646.768,279.325l-4.196-2.516c-2.713-1.635-5.462-3.207-8.192-4.815l-16.41-9.588l-6.984-3.983
	l-9.521-5.43c-2.757-1.56-5.493-3.159-8.266-4.688l-4.178-2.32l-2.312-1.335V172.45l2.328-1.344l4.16-2.311
	c2.774-1.531,5.51-3.127,8.267-4.688l5.257-2.999l11.25-6.417l16.408-9.588c2.729-1.607,5.48-3.178,8.192-4.816l4.213-2.524
	l2.454-1.415l62.526,36.099v72.201l-62.526,36.101L646.768,279.325z"/>
<line fill="none" stroke="#FAAE3B" stroke-width="3" stroke-miterlimit="10" x1="22.115" y1="279.449" x2="22.115" y2="-198.889"/>
<g>
	<g>
		<g>
			<path fill="#969696" d="M150.321,683.189c0,2.784,1.359,4.177,4.075,4.177c2.717,0,4.077-1.393,4.077-4.177v-38.563h4.173v38.563
				c0,2.784,1.359,4.177,4.077,4.177c2.716,0,4.075-1.393,4.075-4.177v-65h1.988v24.052c0,1.458,0.499,2.521,1.49,3.184
				c0.996,0.66,2.022,0.66,3.083,0c1.06-0.664,1.589-1.726,1.589-3.184v-24.845c0-2.784-0.929-5.07-2.782-6.858
				c-1.856-1.793-4.375-2.685-7.555-2.685h-16.1c-3.051,0-5.534,0.862-7.455,2.585c-1.921,1.723-2.883,3.976-2.883,6.758v25.244
				c0,1.327,0.531,2.254,1.589,2.787c1.061,0.526,2.088,0.526,3.084,0c0.992-0.533,1.489-1.46,1.489-2.787v-24.25h1.988v64.999
				H150.321z"/>
		</g>
		<g>
			<path fill="#969696" d="M151.912,597.02c0,2.318,0.829,4.308,2.484,5.962c1.658,1.658,3.645,2.485,5.964,2.485
				c2.32,0,4.273-0.826,5.863-2.485c1.591-1.653,2.386-3.645,2.386-5.962c0-2.318-0.793-4.305-2.386-5.964
				c-1.59-1.656-3.543-2.485-5.863-2.485c-2.318,0-4.306,0.828-5.964,2.485C152.74,592.714,151.912,594.701,151.912,597.02
				L151.912,597.02z"/>
		</g>
	</g>
</g>
<g>
	<g>
		<path fill="#969696" d="M833.952,759.474l0.004-10.622h-7.354c-0.141-0.619-0.286-1.244-0.476-1.85l6.348-3.666l-5.312-9.201
			l-6.379,3.686c-0.432-0.465-0.876-0.912-1.341-1.345l3.683-6.38l-9.201-5.311l-3.666,6.351c-0.604-0.186-1.225-0.333-1.848-0.474
			v-7.351h-10.625v7.351c-0.622,0.141-1.244,0.288-1.846,0.474l-3.666-6.348l-9.203,5.312l3.682,6.379
			c-0.467,0.429-0.91,0.877-1.34,1.342l-6.379-3.684l-5.312,9.205l6.348,3.66c-0.186,0.606-0.335,1.23-0.473,1.85h-7.355v10.622
			h7.354c0.14,0.627,0.285,1.249,0.472,1.85l-6.345,3.67l5.311,9.195l6.377-3.68c0.426,0.466,0.875,0.912,1.341,1.343l-3.683,6.372
			l9.201,5.32l3.666-6.349c0.605,0.187,1.227,0.334,1.85,0.474v7.355h10.626v-7.355c0.624-0.14,1.247-0.287,1.847-0.474l3.667,6.349
			l9.202-5.312l-3.681-6.38c0.466-0.428,0.911-0.875,1.343-1.341l6.374,3.683l5.312-9.2l-6.349-3.67
			c0.189-0.602,0.337-1.223,0.476-1.85H833.952L833.952,759.474z M803.099,768.265c-7.786,0-14.099-6.311-14.099-14.1
			c0-7.788,6.312-14.097,14.099-14.097c7.788,0,14.099,6.309,14.099,14.097C817.197,761.954,810.886,768.265,803.099,768.265z"/>
		<path fill="#969696" d="M784.301,788.918v-6.37h-4.405c-0.084-0.372-0.17-0.747-0.286-1.107l3.806-2.195l-3.181-5.516
			l-3.824,2.208c-0.257-0.281-0.523-0.552-0.804-0.807l2.207-3.823l-5.517-3.184l-2.197,3.811c-0.363-0.115-0.732-0.206-1.104-0.286
			v-4.408h-6.37v4.408c-0.375,0.08-0.745,0.171-1.106,0.286l-2.195-3.811l-5.519,3.187l2.207,3.821
			c-0.278,0.259-0.546,0.525-0.805,0.806l-3.82-2.208l-3.188,5.519l3.806,2.192c-0.109,0.362-0.203,0.734-0.283,1.107h-4.404v6.37
			h4.404c0.082,0.375,0.173,0.745,0.284,1.108l-3.806,2.196l3.188,5.517l3.82-2.212c0.256,0.282,0.525,0.548,0.803,0.809
			l-2.207,3.819l5.518,3.186l2.193-3.804c0.363,0.115,0.733,0.201,1.11,0.283v4.407h6.37v-4.407
			c0.371-0.082,0.746-0.169,1.104-0.283l2.197,3.806l5.517-3.185l-2.205-3.822c0.277-0.259,0.547-0.525,0.803-0.809l3.823,2.212
			l3.186-5.517l-3.809-2.196c0.115-0.364,0.2-0.733,0.288-1.108H784.301L784.301,788.918z M765.809,794.185
			c-4.669,0-8.451-3.783-8.451-8.449s3.782-8.449,8.451-8.449c4.665,0,8.45,3.783,8.45,8.449S770.475,794.185,765.809,794.185z"/>
	</g>
</g>
</svg>
