<?xml version="1.0" encoding="utf-8"?>
<!-- Generator: Adobe Illustrator 16.0.4, SVG Export Plug-In . SVG Version: 6.00 Build 0)  -->
<!DOCTYPE svg PUBLIC "-//W3C//DTD SVG 1.1//EN" "http://www.w3.org/Graphics/SVG/1.1/DTD/svg11.dtd">
<svg version="1.1" id="Layer_1" xmlns="http://www.w3.org/2000/svg" xmlns:xlink="http://www.w3.org/1999/xlink" x="0px" y="0px"
	 width="914.4px" height="918px" viewBox="0 0 914.4 918" enable-background="new 0 0 914.4 918" xml:space="preserve">
<g>
	<g>
		<g opacity="0.3">
			<path fill="#010101" d="M128.083,338.912"/>
		</g>
		<g>
			<g>
				<path fill="#989798" d="M128.083,336.912"/>
			</g>
		</g>
	</g>
</g>
<path fill="none" stroke="#C0272D" stroke-width="3" stroke-miterlimit="10" d="M619.732,574.879"/>
<path fill="none" stroke="#C0272D" stroke-width="3" stroke-miterlimit="10" d="M499.021,435.767"/>
<path fill="#F2F2F2" d="M505.852,431.699"/>
<path fill="#F2F2F2" d="M505.852,431.699"/>
<g>
	<path fill="#F2F2F2" d="M299.976,165.281v62.874l-5.499,3.295l-7.038,4.302l-7.029,4.317c-2.35,1.427-4.662,2.917-6.995,4.373
		c-4.667,2.91-9.304,5.873-13.928,8.86c-2.32,1.479-4.607,3.013-6.913,4.518c-1.996,1.302-3.963,2.649-5.941,3.982
		c-0.308,0.207-0.614,0.415-0.922,0.622c0.001-0.001,0.002-0.001,0.004-0.001c-0.001,0-0.002,0.001-0.004,0.002
		c2.472-1.217,4.963-2.396,7.418-3.644c2.457-1.242,4.93-2.455,7.368-3.727c4.903-2.508,9.785-5.043,14.639-7.629
		c2.427-1.292,4.875-2.553,7.285-3.873l7.252-3.93l7.245-3.942l5.375-2.987l55.131,31.828l0.099,6.147l0.208,8.245l0.223,8.246
		c0.062,2.748,0.196,5.499,0.29,8.245c0.187,5.499,0.434,10.996,0.71,16.491c0.119,2.748,0.305,5.496,0.457,8.245
		c0.083,1.546,0.191,3.096,0.302,4.642c0.084,1.202,0.172,2.401,0.251,3.605c0-0.007,0.001-0.012,0.001-0.018
		c0,0.006,0.001,0.011,0.001,0.015c0.183-2.748,0.407-5.496,0.555-8.245c0.151-2.749,0.337-5.497,0.457-8.244
		c0.278-5.498,0.523-10.994,0.71-16.492c0.094-2.747,0.228-5.497,0.29-8.245l0.224-8.246l0.207-8.245l0.1-6.147l54.591-31.519
		c4.289,2.46,8.588,4.902,12.916,7.296c4.817,2.651,9.638,5.296,14.524,7.827c2.44,1.269,4.86,2.576,7.318,3.812l7.377,3.716
		c2.481,1.196,4.948,2.423,7.446,3.592c2.496,1.173,4.997,2.337,7.536,3.435c-2.221-1.651-4.479-3.235-6.743-4.811
		c-2.263-1.579-4.558-3.1-6.832-4.652l-6.906-4.532c-2.303-1.51-4.646-2.952-6.961-4.433c-4.635-2.964-9.338-5.815-14.041-8.662
		c-4.237-2.55-8.5-5.053-12.777-7.536V165.38c4.275-2.484,8.539-4.988,12.776-7.539c4.705-2.844,9.407-5.695,14.042-8.663
		c2.316-1.479,4.658-2.922,6.96-4.433l6.907-4.528c2.274-1.553,4.569-3.075,6.832-4.654c2.265-1.574,4.522-3.16,6.743-4.81
		c-2.539,1.097-5.04,2.26-7.536,3.436c-2.498,1.167-4.965,2.396-7.445,3.591l-7.378,3.714c-2.458,1.24-4.878,2.544-7.32,3.814
		c-4.886,2.53-9.705,5.177-14.521,7.828c-4.328,2.395-8.627,4.833-12.917,7.295l-54.589-31.517l-0.101-6.15l-0.207-8.245
		l-0.224-8.246c-0.062-2.747-0.194-5.495-0.289-8.245c-0.187-5.496-0.434-10.994-0.711-16.49c-0.119-2.75-0.304-5.499-0.457-8.246
		c-0.148-2.749-0.371-5.498-0.555-8.246c0,0.005-0.001,0.011-0.001,0.016c0-0.006-0.001-0.011-0.001-0.016
		c-0.135,2.039-0.284,4.078-0.416,6.116c-0.046,0.709-0.099,1.42-0.137,2.129c-0.15,2.747-0.337,5.496-0.455,8.246
		c-0.278,5.496-0.525,10.994-0.711,16.49c-0.094,2.75-0.228,5.498-0.291,8.245l-0.222,8.246l-0.207,8.245l-0.101,6.148
		l-55.131,31.83l-5.376-2.988l-7.244-3.945l-7.252-3.927c-2.411-1.322-4.855-2.579-7.285-3.873
		c-4.854-2.587-9.737-5.122-14.639-7.63c-2.438-1.271-4.912-2.483-7.368-3.727c-2.454-1.246-4.947-2.426-7.418-3.643
		c0.001,0,0.002,0,0.004,0.002c-0.001-0.001-0.002-0.002-0.004-0.002c0.308,0.207,0.614,0.415,0.922,0.623
		c1.978,1.333,3.945,2.681,5.941,3.981c2.306,1.506,4.592,3.041,6.914,4.517c4.623,2.99,9.259,5.952,13.926,8.862
		c2.334,1.454,4.646,2.943,6.996,4.373l7.029,4.312l7.037,4.303L299.976,165.281z M357.822,258.134l-3.641-2.183
		c-2.354-1.419-4.741-2.783-7.109-4.178l-14.239-8.319l-6.061-3.457l-8.262-4.713c-2.392-1.353-4.767-2.74-7.173-4.068l-3.625-2.014
		l-2.006-1.159V165.39l2.021-1.166l3.61-2.005c2.407-1.328,4.781-2.713,7.172-4.068l4.562-2.602l9.765-5.567l14.238-8.321
		c2.369-1.395,4.756-2.758,7.11-4.179l3.654-2.19l2.13-1.228l54.26,31.326v62.653l-54.26,31.329L357.822,258.134z"/>
	<path fill="#F2F2F2" d="M132.379,64.589c1.978-1.333,3.946-2.68,5.942-3.98c2.305-1.505,4.591-3.042,6.913-4.519
		c4.622-2.989,9.259-5.952,13.926-8.86c2.333-1.456,4.645-2.945,6.995-4.374l7.031-4.317l7.037-4.302l5.5-3.296V2.146h5.728v28.687
		l2.006,1.159l3.625,2.014c2.407,1.328,4.781,2.713,7.174,4.066l8.262,4.714l6.062,3.456l14.239,8.32
		c2.369,1.395,4.755,2.757,7.108,4.179l3.64,2.182l2.145,1.238l54.261-31.328V2.146h5.729v28.699
		c4.277,2.484,8.542,4.987,12.777,7.537c4.705,2.846,9.406,5.697,14.041,8.663c2.319,1.478,4.659,2.922,6.961,4.433l6.906,4.529
		c2.277,1.554,4.571,3.075,6.833,4.653c2.266,1.575,4.525,3.16,6.746,4.811c-2.541-1.098-5.042-2.262-7.54-3.435
		c-2.498-1.17-4.963-2.396-7.447-3.594l-7.375-3.715c-2.459-1.237-4.878-2.544-7.319-3.813c-4.887-2.53-9.707-5.176-14.522-7.828
		c-4.328-2.394-8.628-4.834-12.917-7.295l-54.593,31.52l-0.099,6.147l-0.208,8.245l-0.223,8.246
		c-0.062,2.748-0.197,5.497-0.291,8.245c-0.186,5.497-0.433,10.994-0.709,16.491c-0.119,2.748-0.306,5.496-0.457,8.244
		c-0.148,2.75-0.373,5.498-0.556,8.246c0-0.004-0.001-0.009-0.001-0.017c0,0.007-0.001,0.012-0.001,0.019
		c-0.079-1.204-0.166-2.406-0.251-3.607c-0.111-1.546-0.218-3.095-0.3-4.641c-0.151-2.748-0.339-5.496-0.457-8.244
		c-0.277-5.498-0.523-10.995-0.71-16.491c-0.094-2.748-0.228-5.497-0.29-8.245l-0.224-8.246l-0.207-8.245l-0.1-6.147l-55.129-31.83
		l-5.375,2.986l-7.246,3.944l-7.253,3.93c-2.41,1.321-4.857,2.579-7.285,3.873c-4.854,2.586-9.737,5.121-14.637,7.629
		c-2.439,1.272-4.912,2.485-7.368,3.728c-2.455,1.246-4.947,2.425-7.418,3.641c0.001,0,0.002,0,0.004-0.002l-0.004,0.002
		C131.766,65.005,132.073,64.797,132.379,64.589z"/>
	<path fill="#F2F2F2" d="M360.887,64.589c1.979-1.333,3.946-2.68,5.942-3.98c2.304-1.505,4.591-3.041,6.911-4.519
		c4.624-2.989,9.26-5.952,13.928-8.86c2.332-1.456,4.645-2.945,6.995-4.374l7.03-4.317l7.037-4.302l5.499-3.296V2.146h5.729v28.687
		l2.006,1.159l3.625,2.014c2.407,1.328,4.781,2.713,7.172,4.066l8.266,4.714l6.062,3.456l14.24,8.32
		c2.368,1.395,4.755,2.757,7.106,4.179l3.642,2.182l2.145,1.238l54.264-31.328V2.146h5.729v28.699
		c4.276,2.484,8.54,4.987,12.777,7.537c4.703,2.846,9.402,5.697,14.04,8.663c2.318,1.478,4.657,2.922,6.963,4.433l6.905,4.529
		c2.275,1.554,4.569,3.075,6.834,4.653c2.265,1.575,4.521,3.16,6.742,4.811c-2.541-1.098-5.042-2.262-7.538-3.435
		c-2.495-1.17-4.964-2.396-7.446-3.594l-7.375-3.715c-2.46-1.237-4.878-2.544-7.319-3.813c-4.887-2.53-9.707-5.176-14.521-7.828
		c-4.327-2.393-8.629-4.834-12.916-7.295l-54.595,31.52l-0.1,6.147l-0.206,8.245l-0.225,8.246c-0.062,2.748-0.195,5.499-0.29,8.245
		c-0.188,5.497-0.435,10.994-0.71,16.491c-0.118,2.748-0.308,5.496-0.456,8.244c-0.147,2.75-0.373,5.498-0.558,8.246
		c0-0.004-0.001-0.009-0.001-0.015c0,0.006-0.001,0.011-0.001,0.018c-0.079-1.204-0.167-2.406-0.252-3.607
		c-0.109-1.546-0.218-3.095-0.301-4.641c-0.15-2.748-0.338-5.496-0.456-8.244c-0.277-5.498-0.523-10.995-0.71-16.491
		c-0.095-2.747-0.229-5.497-0.291-8.245l-0.224-8.246l-0.206-8.245l-0.102-6.147l-55.129-31.829l-5.375,2.987l-7.245,3.943
		l-7.253,3.93c-2.411,1.321-4.858,2.58-7.285,3.873c-4.855,2.586-9.737,5.121-14.637,7.629c-2.439,1.272-4.912,2.485-7.369,3.729
		c-2.455,1.246-4.945,2.425-7.417,3.641c0.001,0,0.001,0,0.002-0.002l-0.002,0.002C360.274,65.006,360.581,64.797,360.887,64.589z"
		/>
	<path fill="#F2F2F2" d="M861.526,835.49l-6.906,4.531c-2.303,1.511-4.644,2.951-6.962,4.434c-4.637,2.964-9.338,5.814-14.042,8.662
		c-4.236,2.55-8.501,5.053-12.776,7.536v61.875h-5.728v-61.862l-54.261-31.329l-2.134,1.23l-3.651,2.189
		c-2.354,1.419-4.74,2.783-7.109,4.178l-14.238,8.319l-9.765,5.568l-4.562,2.601c-2.392,1.354-4.765,2.74-7.173,4.068l-3.608,2.005
		l-2.021,1.167v58.424h-5.729v-58.533l-5.5-3.298l-7.036-4.301l-7.029-4.317c-2.351-1.427-4.663-2.917-6.996-4.373
		c-4.667-2.909-9.305-5.872-13.926-8.859c-2.322-1.479-4.609-3.015-6.914-4.519c-1.995-1.302-3.964-2.647-5.939-3.98
		c-0.309-0.206-0.613-0.415-0.923-0.621c0.001,0.001,0.002,0.001,0.005,0.001c-0.003,0-0.004-0.001-0.005-0.002
		c2.474,1.217,4.967,2.396,7.417,3.643c2.456,1.243,4.933,2.455,7.369,3.729c4.899,2.509,9.783,5.043,14.64,7.629
		c2.427,1.292,4.872,2.552,7.282,3.872l7.254,3.93l7.243,3.942l5.376,2.985l55.131-31.826l0.102-6.147l0.208-8.244l0.222-8.246
		c0.062-2.75,0.195-5.499,0.291-8.246c0.188-5.497,0.434-10.993,0.71-16.49c0.118-2.748,0.308-5.496,0.456-8.246
		c0.038-0.71,0.091-1.418,0.137-2.128c0.135-2.039,0.282-4.078,0.416-6.116c0,0.006,0.002,0.011,0.002,0.017
		c0-0.006,0.002-0.011,0.002-0.017c0.185,2.749,0.406,5.497,0.557,8.244c0.15,2.75,0.336,5.498,0.455,8.246
		c0.275,5.498,0.523,10.993,0.712,16.49c0.094,2.747,0.228,5.496,0.288,8.246l0.225,8.246l0.206,8.244l0.104,6.147l54.589,31.519
		c4.29-2.461,8.59-4.902,12.917-7.296c4.814-2.652,9.636-5.296,14.521-7.827c2.441-1.271,4.861-2.575,7.321-3.813l7.376-3.716
		c2.48-1.195,4.948-2.422,7.446-3.592c2.495-1.173,4.998-2.337,7.536-3.436c-2.22,1.65-4.479,3.235-6.741,4.812
		C866.099,832.418,863.804,833.938,861.526,835.49z"/>
	<path fill="#F2F2F2" d="M632.526,838.49l-6.906,4.531c-2.303,1.511-4.645,2.951-6.962,4.434c-4.636,2.964-9.338,5.814-14.042,8.662
		c-4.236,2.55-8.501,5.053-12.776,7.536v61.875h-5.728v-61.862l-54.263-31.329l-2.132,1.23l-3.651,2.189
		c-2.354,1.419-4.74,2.783-7.109,4.178l-14.238,8.319l-9.765,5.568l-4.562,2.601c-2.392,1.354-4.765,2.74-7.173,4.068l-3.608,2.005
		l-2.021,1.167v58.424h-5.729v-58.533l-5.5-3.298l-7.036-4.301l-7.029-4.317c-2.351-1.427-4.663-2.917-6.996-4.373
		c-4.667-2.909-9.305-5.872-13.926-8.859c-2.322-1.479-4.609-3.015-6.914-4.519c-1.995-1.302-3.964-2.647-5.94-3.98
		c-0.308-0.206-0.614-0.415-0.922-0.621c0.001,0.001,0.002,0.001,0.004,0.001c-0.002,0-0.003-0.001-0.004-0.002
		c2.472,1.217,4.965,2.396,7.417,3.643c2.456,1.243,4.933,2.455,7.369,3.729c4.899,2.509,9.783,5.043,14.638,7.629
		c2.429,1.292,4.873,2.552,7.284,3.872l7.254,3.93l7.243,3.942l5.376,2.985l55.131-31.826l0.102-6.147l0.208-8.244l0.222-8.246
		c0.062-2.75,0.195-5.499,0.291-8.246c0.188-5.497,0.432-10.993,0.71-16.49c0.118-2.748,0.308-5.496,0.456-8.246
		c0.038-0.71,0.091-1.418,0.137-2.128c0.135-2.039,0.282-4.078,0.416-6.116c0,0.006,0.001,0.011,0.001,0.017
		c0-0.006,0.002-0.011,0.002-0.017c0.186,2.749,0.407,5.497,0.558,8.244c0.149,2.75,0.336,5.498,0.455,8.246
		c0.275,5.498,0.522,10.993,0.712,16.49c0.094,2.747,0.228,5.496,0.288,8.246l0.225,8.246l0.206,8.244l0.104,6.147l54.589,31.519
		c4.29-2.461,8.59-4.902,12.917-7.296c4.814-2.652,9.636-5.296,14.521-7.827c2.441-1.271,4.861-2.575,7.321-3.813l7.376-3.716
		c2.48-1.195,4.948-2.422,7.447-3.592c2.494-1.173,4.997-2.337,7.535-3.436c-2.22,1.65-4.479,3.235-6.741,4.812
		C637.099,835.418,634.804,836.938,632.526,838.49z"/>
	<path fill="#F2F2F2" d="M586.606,663.344v62.873l-5.498,3.296l-7.038,4.304l-7.029,4.314c-2.351,1.428-4.662,2.918-6.995,4.373
		c-4.668,2.91-9.306,5.872-13.928,8.86c-2.321,1.478-4.608,3.014-6.911,4.519c-1.996,1.299-3.966,2.648-5.942,3.979
		c-0.308,0.208-0.611,0.417-0.921,0.623c0,0,0.002,0,0.003-0.003c-0.001,0.003-0.003,0.003-0.003,0.003
		c2.473-1.217,4.963-2.396,7.417-3.643c2.458-1.244,4.933-2.456,7.37-3.727c4.899-2.509,9.782-5.043,14.637-7.63
		c2.428-1.293,4.875-2.553,7.284-3.873l7.253-3.929l7.246-3.943l5.375-2.988l55.129,31.829l0.103,6.146l0.206,8.246l0.224,8.246
		c0.062,2.748,0.196,5.496,0.29,8.246c0.186,5.496,0.433,10.995,0.711,16.49c0.117,2.748,0.305,5.498,0.455,8.246
		c0.083,1.546,0.19,3.093,0.302,4.639c0.085,1.202,0.173,2.405,0.251,3.606c0-0.007,0.002-0.013,0.002-0.018
		c0,0.005,0.001,0.01,0.001,0.018c0.185-2.75,0.407-5.498,0.558-8.246c0.149-2.748,0.337-5.498,0.455-8.246
		c0.276-5.495,0.522-10.994,0.711-16.49c0.094-2.75,0.229-5.498,0.291-8.246l0.223-8.246l0.206-8.246l0.101-6.146l54.595-31.519
		c4.288,2.462,8.587,4.9,12.916,7.295c4.812,2.65,9.635,5.3,14.521,7.83c2.442,1.27,4.86,2.572,7.32,3.812l7.376,3.714
		c2.479,1.195,4.948,2.424,7.444,3.591c2.498,1.178,4.998,2.339,7.539,3.438c-2.222-1.65-4.479-3.236-6.743-4.812
		c-2.265-1.58-4.559-3.101-6.834-4.653l-6.905-4.529c-2.302-1.509-4.646-2.953-6.963-4.433c-4.637-2.968-9.336-5.817-14.04-8.663
		c-4.236-2.55-8.5-5.055-12.778-7.538V663.44c4.275-2.483,8.54-4.985,12.777-7.536c4.705-2.849,9.404-5.696,14.041-8.662
		c2.317-1.481,4.661-2.922,6.962-4.435l6.905-4.53c2.276-1.554,4.571-3.074,6.834-4.652c2.265-1.575,4.522-3.159,6.744-4.811
		c-2.541,1.098-5.041,2.262-7.539,3.435c-2.498,1.171-4.965,2.396-7.444,3.592l-7.376,3.716c-2.46,1.238-4.881,2.545-7.321,3.813
		c-4.886,2.53-9.706,5.175-14.521,7.827c-4.327,2.394-8.626,4.835-12.916,7.296l-54.592-31.521l-0.102-6.146l-0.206-8.244
		l-0.223-8.247c-0.062-2.748-0.196-5.497-0.29-8.246c-0.188-5.496-0.436-10.992-0.712-16.491c-0.118-2.746-0.306-5.494-0.455-8.244
		c-0.148-2.747-0.372-5.495-0.558-8.245c0,0.006-0.001,0.011-0.001,0.016c0-0.005-0.002-0.009-0.002-0.017
		c-0.133,2.039-0.28,4.08-0.416,6.117c-0.046,0.709-0.099,1.418-0.137,2.128c-0.149,2.75-0.338,5.499-0.455,8.245
		c-0.278,5.499-0.525,10.995-0.71,16.491c-0.095,2.749-0.229,5.498-0.291,8.246l-0.223,8.247l-0.207,8.244l-0.103,6.146
		L588.927,658.8l-5.377-2.987l-7.244-3.94l-7.253-3.93c-2.411-1.32-4.856-2.58-7.284-3.873c-4.854-2.587-9.736-5.121-14.637-7.629
		c-2.439-1.272-4.915-2.484-7.37-3.729c-2.453-1.246-4.946-2.425-7.417-3.643c0,0.001,0.002,0.002,0.003,0.002
		c-0.001,0-0.003,0-0.003,0c0.31,0.204,0.613,0.414,0.921,0.619c1.979,1.334,3.946,2.682,5.942,3.98
		c2.303,1.504,4.59,3.042,6.912,4.521c4.621,2.986,9.259,5.948,13.926,8.859c2.334,1.456,4.646,2.946,6.996,4.373l7.029,4.316
		l7.034,4.303L586.606,663.344z M644.451,756.195l-3.643-2.183c-2.353-1.421-4.737-2.782-7.104-4.179l-14.24-8.32l-6.062-3.457
		l-8.265-4.714c-2.393-1.354-4.767-2.737-7.174-4.064l-3.625-2.017l-2.006-1.156v-62.653l2.021-1.168l3.608-2.004
		c2.408-1.328,4.781-2.716,7.173-4.068l4.562-2.601l9.765-5.569l14.24-8.319c2.367-1.394,4.754-2.756,7.105-4.178l3.655-2.189
		l2.13-1.229l54.263,31.329v62.653l-54.263,31.324L644.451,756.195z"/>
</g>
<g>
	<g>
		<polygon fill="none" stroke="#2DA9E1" stroke-width="5" stroke-miterlimit="10" points="188.586,557.721 131.461,524.74 
			74.333,557.721 74.333,623.684 131.461,656.667 188.586,623.684 		"/>
		<g>
			<g>
				<path fill="#2DA9E1" d="M245.711,524.74c-2.301,1.511-4.584,3.054-6.9,4.54c-2.315,1.485-4.613,3.003-6.942,4.466
					c-4.641,2.956-9.292,5.892-13.972,8.78l-7.014,4.342l-7.044,4.291l-7.049,4.281l-7.082,4.224l1.122-1.943
					c0.077,5.497,0.174,10.994,0.178,16.491l0.078,16.491l-0.075,16.491c-0.021,2.749-0.009,5.497-0.056,8.245l-0.118,8.246
					l-1.125-1.948l7.082,4.225l7.05,4.279l7.043,4.292c2.354,1.421,4.675,2.896,7.014,4.342c4.679,2.89,9.332,5.825,13.971,8.783
					c2.329,1.464,4.627,2.979,6.941,4.468c2.315,1.486,4.598,3.03,6.898,4.542c-2.46-1.236-4.938-2.441-7.383-3.704
					c-2.446-1.26-4.908-2.493-7.34-3.778c-4.881-2.537-9.75-5.101-14.591-7.706c-2.421-1.305-4.86-2.577-7.267-3.904l-7.238-3.954
					l-7.231-3.967l-7.199-4.021l-1.106-0.617l-0.019-1.33l-0.118-8.245c-0.047-2.748-0.036-5.497-0.056-8.245l-0.075-16.491
					l0.078-16.491c0.004-5.497,0.101-10.994,0.178-16.491l0.018-1.327l1.104-0.614l7.199-4.021l7.232-3.964l7.238-3.955l7.267-3.902
					c4.841-2.608,9.71-5.17,14.59-7.711c2.431-1.285,4.894-2.518,7.339-3.777C240.774,527.184,243.251,525.977,245.711,524.74z"/>
			</g>
			<g>
				<path fill="#2DA9E1" d="M131.461,722.371c-0.158-2.749-0.353-5.497-0.481-8.245c-0.131-2.749-0.294-5.497-0.396-8.245
					c-0.24-5.497-0.457-10.993-0.618-16.49l-0.253-8.244l-0.194-8.244l-0.183-8.245l-0.117-8.245l1.122,1.941
					c-4.799-2.683-9.608-5.347-14.371-8.092l-14.321-8.179l-14.245-8.311c-2.37-1.395-4.756-2.759-7.113-4.174l-7.082-4.225h2.249
					l-7.2,4.021l-7.231,3.967l-7.238,3.954c-2.407,1.326-4.846,2.601-7.267,3.902c-4.842,2.607-9.71,5.169-14.592,7.708
					c-2.432,1.285-4.894,2.52-7.34,3.778c-2.445,1.262-4.923,2.467-7.383,3.704c2.301-1.512,4.583-3.056,6.899-4.542
					c2.314-1.489,4.613-3.004,6.941-4.468c4.64-2.958,9.292-5.896,13.972-8.783c2.339-1.445,4.661-2.92,7.015-4.342l7.043-4.292
					l7.051-4.279l7.082-4.225l1.088-0.649l1.162,0.649l7.2,4.021c2.404,1.334,4.778,2.718,7.169,4.075l14.32,8.181l14.243,8.313
					c4.759,2.752,9.471,5.585,14.193,8.397l1.14,0.681l-0.018,1.264l-0.117,8.245l-0.183,8.245l-0.194,8.245l-0.253,8.243
					c-0.162,5.497-0.378,10.993-0.618,16.49c-0.102,2.749-0.266,5.497-0.396,8.245C131.813,716.874,131.619,719.622,131.461,722.371
					z"/>
			</g>
			<g>
				<path fill="#2DA9E1" d="M17.205,524.997c2.519,1.135,5.005,2.326,7.485,3.526c2.484,1.193,4.937,2.441,7.407,3.66l7.346,3.77
					c2.451,1.252,4.863,2.57,7.297,3.852c4.869,2.562,9.685,5.213,14.493,7.88c4.806,2.672,9.583,5.392,14.349,8.131h-2.499
					c4.764-2.743,9.542-5.464,14.346-8.137c4.81-2.664,9.622-5.321,14.492-7.881c2.434-1.282,4.848-2.596,7.297-3.852l7.346-3.769
					c2.471-1.218,4.925-2.465,7.408-3.658c2.481-1.199,4.968-2.392,7.488-3.522c-2.241,1.616-4.515,3.174-6.794,4.723
					c-2.277,1.555-4.583,3.057-6.874,4.585l-6.936,4.479c-2.312,1.493-4.658,2.927-6.985,4.394
					c-4.651,2.938-9.36,5.776-14.072,8.609c-4.717,2.824-9.461,5.602-14.218,8.356l-1.25,0.724l-1.249-0.724
					c-4.756-2.759-9.5-5.535-14.215-8.361c-4.713-2.831-9.418-5.676-14.071-8.611c-2.327-1.466-4.674-2.896-6.984-4.394
					l-6.936-4.479c-2.291-1.527-4.598-3.028-6.875-4.583C21.722,528.168,19.447,526.61,17.205,524.997z"/>
			</g>
		</g>
	</g>
</g>
<g>
	<g>
		<polygon fill="none" stroke="#C0282D" stroke-width="5" stroke-miterlimit="10" points="302.837,362.401 245.713,329.421 
			188.587,362.401 188.587,428.364 245.713,461.345 302.837,428.364 		"/>
		<g>
			<path fill="#C0282D" d="M131.461,329.678c2.459,1.237,4.937,2.443,7.381,3.706c2.446,1.261,4.908,2.494,7.339,3.779
				c4.88,2.541,9.749,5.101,14.59,7.71l7.268,3.903l7.237,3.954l7.232,3.965l7.199,4.021h-2.243
				c4.722-2.812,9.434-5.646,14.193-8.397l14.243-8.312l14.319-8.18c2.391-1.356,4.765-2.74,7.169-4.074l7.2-4.021l-1.125,1.947
				l0.118-8.246l0.181-8.244l0.195-8.245c0.054-2.748,0.17-5.497,0.253-8.247c0.163-5.497,0.378-10.994,0.621-16.491
				c0.103-2.749,0.266-5.497,0.398-8.246c0.129-2.748,0.325-5.497,0.484-8.245c0.159,2.749,0.355,5.497,0.484,8.245
				c0.132,2.749,0.295,5.497,0.396,8.246c0.243,5.497,0.458,10.994,0.621,16.491c0.083,2.75,0.199,5.499,0.253,8.247l0.195,8.245
				l0.181,8.244l0.118,8.246l0.018,1.268l-1.143,0.682l-7.082,4.225c-2.356,1.415-4.743,2.779-7.112,4.172l-14.244,8.312
				l-14.32,8.178c-4.763,2.745-9.572,5.409-14.371,8.093l-1.158,0.646l-1.085-0.646l-7.083-4.225l-7.049-4.281l-7.043-4.291
				l-7.014-4.342c-4.68-2.888-9.332-5.825-13.973-8.779c-2.329-1.464-4.627-2.979-6.942-4.467
				C136.045,332.73,133.762,331.189,131.461,329.678z"/>
		</g>
		<g>
			<path fill="#C0282D" d="M359.967,329.421c-2.301,1.511-4.584,3.054-6.9,4.54c-2.315,1.487-4.614,3.003-6.943,4.466
				c-4.641,2.956-9.293,5.894-13.974,8.78l-7.015,4.342l-7.044,4.291l-7.05,4.281l-7.083,4.224l1.122-1.941
				c0.077,5.497,0.174,10.993,0.178,16.489l0.078,16.491l-0.075,16.491c-0.021,2.749-0.009,5.497-0.056,8.245l-0.118,8.246
				l-1.125-1.948l7.083,4.225l7.051,4.279l7.044,4.292c2.354,1.421,4.675,2.896,7.015,4.341c4.68,2.892,9.333,5.825,13.972,8.783
				c2.329,1.464,4.628,2.979,6.942,4.468c2.315,1.486,4.598,3.03,6.899,4.542c-2.46-1.234-4.938-2.439-7.383-3.703
				c-2.446-1.26-4.908-2.491-7.34-3.776c-4.882-2.539-9.75-5.103-14.593-7.708c-2.421-1.305-4.86-2.577-7.268-3.904l-7.239-3.954
				l-7.231-3.966l-7.2-4.021l-1.106-0.617l-0.019-1.331l-0.118-8.246c-0.047-2.749-0.036-5.497-0.056-8.245l-0.075-16.491
				l0.078-16.491c0.004-5.497,0.101-10.992,0.178-16.489l0.02-1.327l1.104-0.616l7.2-4.021l7.233-3.965l7.238-3.955l7.268-3.901
				c4.842-2.609,9.711-5.169,14.591-7.71c2.432-1.286,4.894-2.52,7.34-3.779C355.03,331.865,357.507,330.658,359.967,329.421z"/>
		</g>
		<g>
			<path fill="#C0282D" d="M245.713,460.067c-2.519-1.137-5.005-2.326-7.485-3.526c-2.483-1.195-4.937-2.443-7.407-3.662
				l-7.346-3.768c-2.451-1.252-4.863-2.57-7.297-3.854c-4.869-2.562-9.685-5.213-14.493-7.879c-4.806-2.67-9.583-5.39-14.349-8.129
				h2.499c-4.764,2.742-9.541,5.462-14.345,8.134c-4.809,2.664-9.621,5.323-14.491,7.881c-2.433,1.282-4.848,2.598-7.297,3.854
				l-7.346,3.767c-2.47,1.219-4.924,2.464-7.408,3.66c-2.481,1.199-4.968,2.391-7.487,3.522c2.241-1.615,4.515-3.176,6.794-4.725
				c2.277-1.553,4.583-3.056,6.874-4.585l6.935-4.479c2.312-1.493,4.657-2.928,6.984-4.395c4.65-2.938,9.359-5.774,14.071-8.607
				c4.716-2.825,9.46-5.604,14.217-8.356l1.25-0.724l1.249,0.724c4.755,2.757,9.5,5.535,14.215,8.361
				c4.713,2.83,9.418,5.675,14.071,8.61c2.327,1.467,4.674,2.896,6.984,4.394l6.936,4.478c2.291,1.53,4.598,3.03,6.875,4.583
				C241.197,456.896,243.472,458.454,245.713,460.067z"/>
		</g>
	</g>
</g>
<g>
	<g>
		<g>
			<path fill="#8CC541" d="M531.346,427.331c2.521,1.135,5.005,2.326,7.485,3.526c2.483,1.193,4.937,2.441,7.406,3.661l7.346,3.77
				c2.451,1.252,4.864,2.57,7.298,3.852c4.868,2.562,9.687,5.214,14.492,7.88c4.806,2.673,9.583,5.392,14.349,8.132h-2.499
				c4.766-2.743,9.541-5.464,14.348-8.137c4.809-2.664,9.619-5.321,14.489-7.881c2.436-1.282,4.851-2.597,7.298-3.853l7.348-3.769
				c2.471-1.218,4.925-2.464,7.408-3.659c2.479-1.198,4.968-2.391,7.485-3.521c-2.239,1.616-4.515,3.174-6.794,4.723
				c-2.275,1.555-4.584,3.057-6.874,4.585l-6.936,4.479c-2.312,1.493-4.657,2.927-6.984,4.393c-4.649,2.938-9.358,5.776-14.069,8.61
				c-4.719,2.824-9.463,5.602-14.22,8.354l-1.251,0.726l-1.249-0.726c-4.755-2.758-9.499-5.533-14.214-8.359
				c-4.714-2.831-9.418-5.676-14.07-8.611c-2.325-1.467-4.675-2.896-6.983-4.394l-6.938-4.479c-2.29-1.527-4.598-3.029-6.875-4.583
				C535.862,430.502,533.588,428.944,531.346,427.331z"/>
		</g>
		<g>
			<path fill="#8CC541" d="M645.599,557.721c-2.459-1.235-4.937-2.441-7.382-3.706c-2.445-1.261-4.907-2.492-7.339-3.777
				c-4.88-2.541-9.749-5.103-14.59-7.71l-7.27-3.903l-7.235-3.955l-7.232-3.964l-7.199-4.021h2.243
				c-4.722,2.814-9.434,5.647-14.19,8.399l-14.243,8.312l-14.319,8.182c-2.391,1.354-4.765,2.74-7.169,4.074l-7.199,4.021
				l1.124-1.948l-0.115,8.246l-0.183,8.245l-0.194,8.246c-0.055,2.748-0.172,5.497-0.254,8.245
				c-0.162,5.497-0.378,10.994-0.619,16.491c-0.104,2.749-0.268,5.497-0.397,8.243c-0.129,2.749-0.325,5.497-0.483,8.246
				c-0.159-2.749-0.354-5.497-0.483-8.246c-0.133-2.746-0.295-5.496-0.398-8.243c-0.241-5.497-0.457-10.994-0.62-16.491
				c-0.081-2.749-0.197-5.497-0.253-8.245l-0.194-8.246l-0.182-8.245l-0.116-8.246l-0.02-1.266l1.144-0.682l7.082-4.227
				c2.356-1.415,4.742-2.779,7.112-4.171l14.244-8.312l14.32-8.179c4.763-2.745,9.569-5.409,14.369-8.092l1.157-0.646l1.086,0.646
				l7.082,4.224l7.05,4.281l7.044,4.29l7.015,4.342c4.68,2.89,9.332,5.825,13.973,8.78c2.329,1.463,4.628,2.979,6.942,4.466
				C641.015,554.667,643.298,556.21,645.599,557.721z"/>
		</g>
		<g>
			<path fill="#8CC541" d="M417.093,557.979c2.301-1.511,4.584-3.054,6.9-4.538c2.313-1.487,4.612-3.005,6.94-4.468
				c4.643-2.956,9.292-5.893,13.974-8.779l7.014-4.344l7.043-4.291l7.049-4.279l7.082-4.226l-1.121,1.943
				c-0.074-5.497-0.174-10.994-0.178-16.491l-0.077-16.49l0.075-16.488c0.021-2.749,0.009-5.497,0.056-8.246l0.118-8.245
				l1.124,1.948l-7.081-4.227l-7.051-4.279l-7.043-4.291c-2.353-1.422-4.675-2.896-7.014-4.343
				c-4.681-2.889-9.332-5.823-13.973-8.782c-2.327-1.464-4.627-2.979-6.939-4.469c-2.315-1.484-4.598-3.029-6.898-4.542
				c2.46,1.236,4.938,2.441,7.383,3.703c2.446,1.26,4.908,2.493,7.34,3.778c4.883,2.539,9.75,5.101,14.593,7.708
				c2.421,1.303,4.857,2.577,7.267,3.903l7.238,3.954l7.229,3.967l7.2,4.021l1.105,0.618l0.019,1.331l0.118,8.245
				c0.047,2.749,0.035,5.497,0.056,8.246l0.075,16.488l-0.077,16.49c-0.004,5.497-0.102,10.994-0.178,16.491l-0.019,1.327
				l-1.104,0.616l-7.199,4.021l-7.23,3.964l-7.237,3.955l-7.267,3.903c-4.841,2.608-9.71,5.169-14.59,7.71
				c-2.433,1.286-4.896,2.518-7.341,3.779C422.03,555.535,419.553,556.742,417.093,557.979z"/>
		</g>
		<polygon fill="none" stroke="#8CC541" stroke-width="5" stroke-miterlimit="10" points="588.474,460.312 531.347,427.331 
			474.218,460.312 474.218,526.274 531.347,559.255 588.474,526.275 		"/>
	</g>
</g>
<g>
	<g>
		<g>
			<path fill="#FAAF3C" d="M645.599,229.956c2.459,1.237,4.938,2.443,7.384,3.706c2.443,1.261,4.905,2.494,7.339,3.78
				c4.88,2.541,9.749,5.102,14.59,7.71l7.268,3.903l7.237,3.955l7.232,3.964l7.197,4.021h-2.242
				c4.723-2.814,9.436-5.647,14.192-8.399l14.243-8.313l14.32-8.18c2.391-1.356,4.766-2.741,7.169-4.074l7.2-4.021l-1.125,1.948
				l0.116-8.246l0.183-8.245l0.193-8.246c0.056-2.748,0.172-5.497,0.253-8.245c0.163-5.497,0.38-10.994,0.62-16.491
				c0.104-2.749,0.269-5.497,0.398-8.246c0.129-2.748,0.325-5.497,0.482-8.245c0.159,2.749,0.355,5.497,0.484,8.245
				c0.132,2.749,0.295,5.497,0.398,8.246c0.241,5.497,0.457,10.994,0.619,16.491c0.081,2.749,0.198,5.497,0.254,8.245l0.193,8.246
				l0.182,8.245l0.116,8.246l0.021,1.266l-1.143,0.682l-7.084,4.225c-2.355,1.415-4.742,2.779-7.112,4.171l-14.244,8.311
				l-14.321,8.178c-4.763,2.745-9.572,5.409-14.371,8.092l-1.156,0.647l-1.088-0.647l-7.08-4.225l-7.051-4.281l-7.044-4.291
				l-7.014-4.342c-4.68-2.888-9.332-5.825-13.973-8.781c-2.329-1.463-4.627-2.979-6.942-4.466
				C650.183,233.009,647.899,231.467,645.599,229.956z"/>
		</g>
		<g>
			<path fill="#FAAF3C" d="M816.979,262.682c0.276,2.749,0.488,5.497,0.689,8.246c0.206,2.748,0.354,5.497,0.531,8.245l0.41,8.246
				c0.141,2.749,0.205,5.497,0.312,8.245c0.216,5.497,0.328,10.994,0.422,16.491c0.091,5.497,0.124,10.994,0.134,16.491
				l-1.248-2.166c4.758,2.755,9.5,5.531,14.218,8.355c4.712,2.833,9.421,5.671,14.069,8.609c2.327,1.466,4.674,2.898,6.985,4.394
				l6.935,4.479c2.29,1.528,4.599,3.03,6.875,4.585c2.278,1.549,4.554,3.105,6.793,4.723c-2.52-1.133-5.006-2.323-7.485-3.521
				c-2.483-1.195-4.938-2.441-7.408-3.66l-7.346-3.769c-2.449-1.256-4.863-2.568-7.298-3.852c-4.869-2.561-9.684-5.218-14.491-7.881
				c-4.806-2.673-9.581-5.394-14.347-8.136l-1.253-0.721l0.003-1.443c0.012-5.495,0.045-10.992,0.136-16.489
				c0.094-5.497,0.205-10.994,0.422-16.491c0.104-2.748,0.172-5.497,0.312-8.245l0.41-8.246c0.18-2.749,0.325-5.497,0.531-8.245
				C816.49,268.179,816.702,265.431,816.979,262.682z"/>
		</g>
		<g>
			<path fill="#FAAF3C" d="M759.852,427.331c-0.156-2.749-0.353-5.497-0.479-8.246c-0.131-2.748-0.294-5.497-0.396-8.245
				c-0.238-5.497-0.457-10.994-0.617-16.491l-0.254-8.245l-0.193-8.244l-0.184-8.245l-0.116-8.246l1.12,1.941
				c-4.8-2.682-9.606-5.346-14.369-8.091l-14.321-8.178l-14.244-8.311c-2.37-1.393-4.756-2.757-7.112-4.172l-7.082-4.225h2.248
				l-7.197,4.021l-7.23,3.966l-7.238,3.954c-2.405,1.325-4.846,2.601-7.267,3.902c-4.843,2.607-9.71,5.169-14.592,7.708
				c-2.434,1.285-4.896,2.52-7.34,3.777c-2.445,1.262-4.925,2.467-7.385,3.703c2.303-1.513,4.583-3.058,6.898-4.542
				c2.314-1.488,4.613-3.004,6.941-4.467c4.64-2.958,9.292-5.895,13.971-8.782c2.34-1.445,4.661-2.92,7.015-4.341l7.043-4.292
				l7.053-4.279l7.08-4.226l1.089-0.648l1.161,0.648l7.198,4.021c2.404,1.333,4.778,2.718,7.169,4.074l14.32,8.18l14.243,8.312
				c4.759,2.751,9.471,5.584,14.192,8.396l1.141,0.679l-0.021,1.266l-0.116,8.246l-0.184,8.245l-0.191,8.245l-0.255,8.244
				c-0.161,5.497-0.38,10.994-0.618,16.491c-0.104,2.749-0.267,5.497-0.396,8.245C760.204,421.833,760.01,424.582,759.852,427.331z"
				/>
		</g>
		<polygon fill="none" stroke="#FAAF3C" stroke-width="5" stroke-miterlimit="10" points="816.979,262.682 759.854,229.7 
			702.727,262.682 702.727,328.646 759.854,361.626 816.979,328.646 		"/>
	</g>
	<g>
		<g opacity="0.3">
			<path fill="#010101" d="M768.189,334.489"/>
			<path fill="#010101" d="M766.895,264.317"/>
		</g>
		<g>
			<g>
				<path fill="#989798" d="M768.189,332.489"/>
				<path fill="#989798" d="M766.895,262.317"/>
			</g>
		</g>
	</g>
</g>
<polyline fill="none" stroke="#2DA9E1" stroke-width="3" stroke-miterlimit="10" points="74.333,623.427 17.205,656.41 
	17.205,917.527 "/>
<polyline fill="none" stroke="#8CC541" stroke-width="3" stroke-miterlimit="10" points="474.218,459.035 417.093,426.053 
	359.967,459.035 359.967,524.997 302.837,557.721 245.711,524.997 245.711,459.035 "/>
<polyline fill="none" stroke="#FAAF3C" stroke-width="3" stroke-miterlimit="10" points="702.727,328.646 645.599,361.368 
	588.472,328.646 531.346,361.368 531.347,426.053 "/>
<path fill="none" stroke="#FAAF3C" stroke-width="3" stroke-miterlimit="10" d="M872.531,1l0.709,229.599
	c0,0-37.372,21.908-56.703,32.217"/>
<polyline fill="none" stroke="#C0282D" stroke-width="3" stroke-miterlimit="10" points="188.586,426.053 131.46,461.27 
	131.461,524.997 "/>
<g>
	<circle fill="#FAAF3C" cx="816.538" cy="262.816" r="8.747"/>
	<circle fill="#F2F2F2" cx="816.538" cy="262.816" r="5.411"/>
</g>
<g>
	<circle fill="#FAAF3C" cx="531.345" cy="427.331" r="8.747"/>
	<circle fill="#F2F2F2" cx="531.345" cy="427.331" r="5.411"/>
</g>
<g>
	<circle fill="#8CC541" cx="245.711" cy="461.345" r="8.746"/>
	<circle fill="#F2F2F2" cx="245.711" cy="461.345" r="5.41"/>
</g>
<g>
	<circle fill="#C0282D" cx="131.461" cy="524.74" r="8.746"/>
	<circle fill="#F2F2F2" cx="131.462" cy="524.74" r="5.41"/>
</g>
<path fill="#989898" d="M556.326,508.986h-0.84v-10.925c0-3.242-2.642-5.884-5.887-5.884h-14.282v-26.722h0.84
	c1.388,0,2.521-1.135,2.521-2.521v-8.402c0-1.39-1.134-2.521-2.521-2.521h-8.402c-1.388,0-2.521,1.132-2.521,2.521v8.402
	c0,1.388,1.135,2.521,2.521,2.521h0.84v26.722h-14.287c-3.241,0-5.88,2.642-5.88,5.883v10.926h-0.842
	c-1.387,0-2.521,1.135-2.521,2.521v8.404c0,1.387,1.134,2.521,2.521,2.521h8.404c1.385,0,2.521-1.134,2.521-2.521v-8.404
	c0-1.385-1.136-2.521-2.521-2.521h-0.841v-10.085h13.443v10.085h-0.84c-1.388,0-2.521,1.135-2.521,2.521v8.404
	c0,1.387,1.135,2.521,2.521,2.521h8.402c1.388,0,2.521-1.134,2.521-2.521v-8.404c0-1.385-1.134-2.521-2.521-2.521h-0.841v-10.085
	h13.444v10.085h-0.841c-1.386,0-2.521,1.135-2.521,2.521v8.404c0,1.387,1.136,2.521,2.521,2.521h8.404
	c1.385,0,2.521-1.134,2.521-2.521v-8.404C558.847,510.121,557.711,508.986,556.326,508.986z M515.149,519.071h-6.724v-6.727h6.724
	V519.071z M535.317,519.071h-6.725v-6.727h6.725V519.071z M528.595,462.095v-6.723h6.725v6.723H528.595z M555.486,519.071h-6.726
	v-6.727h6.726V519.071z"/>
<path fill="#989898" d="M100.536,606.003h62.921v7.865h-62.921V606.003z M108.401,590.273h7.865v11.798h-7.865V590.273z
	 M120.199,574.542h7.864v27.529h-7.864V574.542z M131.996,586.34h7.865v15.731h-7.865V586.34z M143.794,562.745h7.865v39.326h-7.865
	V562.745z"/>
<path fill="#989898" d="M276.691,410.24c0-16.939-15.057-13.175-15.057-26.353c0-1.091-0.106-2.022-0.297-2.817
	c-0.99-6.647-5.42-11.983-11.162-13.608c0.051-0.23,0.077-0.472,0.077-0.718c0-1.958-1.693-3.561-3.764-3.561
	c-2.071,0-3.765,1.604-3.765,3.561c0,0.246,0.027,0.484,0.078,0.718c-6.439,1.823-11.229,8.312-11.367,16.083
	c-0.002,0.112-0.004,0.227-0.004,0.344c0,13.177-15.057,9.412-15.057,26.353c0,4.481,10.034,8.233,23.466,9.18
	c1.266,2.377,3.768,3.996,6.648,3.996c2.88,0,5.382-1.618,6.648-3.996c13.433-0.945,23.466-4.697,23.466-9.18
	c0-0.015,0-0.026,0-0.041L276.691,410.24z M264.971,413.422c-3.19,0.854-6.95,1.463-10.985,1.803
	c-0.335-3.847-3.563-6.864-7.498-6.864c-3.937,0-7.163,3.019-7.498,6.864c-4.035-0.34-7.795-0.949-10.985-1.803
	c-4.39-1.171-6.488-2.48-7.256-3.182c0.768-0.7,2.866-2.01,7.256-3.184c5.104-1.359,11.668-2.109,18.483-2.109
	c6.816,0,13.38,0.75,18.483,2.109c4.39,1.174,6.489,2.482,7.257,3.184C271.46,410.94,269.361,412.25,264.971,413.422z"/>
<path fill="#989898" d="M782.314,274.383c-5.103-5.1-12.146-8.255-19.93-8.255c-12.079,0-22.384,7.603-26.393,18.284l6.6,2.475
	c3.006-8.012,10.733-13.714,19.793-13.714c5.838,0,11.12,2.367,14.945,6.192l-7.898,7.899h21.138v-21.136L782.314,274.383z
	 M762.387,315.446c-5.837,0-11.117-2.367-14.941-6.193l7.896-7.896h-21.136v21.136l8.255-8.256
	c5.102,5.101,12.146,8.256,19.926,8.256c12.081,0,22.388-7.604,26.395-18.284l-6.598-2.474
	C779.176,309.744,771.448,315.446,762.387,315.446z"/>
<g id="Layer_3">
</g>
<g id="Layer_2">
	<g>
		<g>
			<g>
				<path fill="#989798" d="M128.149,334.048"/>
			</g>
		</g>
	</g>
</g>
</svg>
