<?xml version="1.0" encoding="utf-8"?>
<!-- Generator: Adobe Illustrator 16.0.4, SVG Export Plug-In . SVG Version: 6.00 Build 0)  -->
<!DOCTYPE svg PUBLIC "-//W3C//DTD SVG 1.1//EN" "http://www.w3.org/Graphics/SVG/1.1/DTD/svg11.dtd">
<svg version="1.1" id="Layer_1" xmlns="http://www.w3.org/2000/svg" xmlns:xlink="http://www.w3.org/1999/xlink" x="0px" y="0px"
	 width="914.4px" height="891px" viewBox="0 0 914.4 891" enable-background="new 0 0 914.4 891" xml:space="preserve">
<g id="Layer_3">
</g>
<path fill="#F1F1F1" d="M626.135,392.035l7.334-4.731l7.325-4.747c2.448-1.569,4.86-3.208,7.292-4.808
	c4.862-3.201,9.696-6.458,14.514-9.743c2.418-1.624,4.802-3.313,7.202-4.968c2.081-1.431,4.133-2.914,6.195-4.378
	c0.318-0.228,0.639-0.456,0.957-0.683c0,0-0.001,0-0.001,0.001c0-0.001,0.001-0.001,0.001-0.001
	c-2.573,1.336-5.172,2.633-7.729,4.003c-2.559,1.368-5.139,2.702-7.68,4.099c-5.104,2.758-10.196,5.546-15.255,8.39
	c-2.529,1.421-5.078,2.805-7.593,4.256l-7.558,4.321l-7.55,4.337l-5.604,3.285l-57.454-35l-0.105-6.759l-0.215-9.066l-0.233-9.066
	c-0.065-3.022-0.202-6.044-0.303-9.067c-0.193-6.043-0.45-12.088-0.739-18.132c-0.124-3.022-0.32-6.044-0.476-9.067
	c-0.04-0.78-0.094-1.561-0.143-2.341c-0.138-2.241-0.294-4.483-0.435-6.726c0,0.007,0,0.011,0,0.019
	c0-0.006-0.001-0.012-0.001-0.017c-0.191,3.021-0.425,6.043-0.579,9.065c-0.158,3.022-0.353,6.044-0.476,9.067
	c-0.289,6.044-0.546,12.089-0.741,18.132c-0.099,3.022-0.236,6.045-0.302,9.067l-0.233,9.066l-0.213,9.066l-0.105,6.76
	l-56.894,34.657c-4.47-2.706-8.952-5.391-13.46-8.022c-5.021-2.916-10.045-5.825-15.136-8.608c-2.544-1.396-5.067-2.831-7.63-4.193
	l-7.688-4.084c-2.588-1.315-5.156-2.665-7.762-3.951c-2.601-1.291-5.208-2.57-7.855-3.778c2.315,1.816,4.668,3.558,7.029,5.291
	c2.356,1.737,4.749,3.409,7.123,5.116l7.197,4.982c2.399,1.66,4.839,3.247,7.257,4.874c4.829,3.262,9.729,6.396,14.633,9.524
	c4.415,2.805,8.86,5.557,13.314,8.288v68.919c-4.457,2.731-8.899,5.483-13.316,8.288c-4.902,3.129-9.802,6.264-14.631,9.524
	c-2.418,1.627-4.857,3.213-7.258,4.875l-7.196,4.98c-2.374,1.707-4.764,3.379-7.123,5.117c-2.36,1.731-4.714,3.474-7.029,5.289
	c2.647-1.208,5.254-2.486,7.857-3.778c2.602-1.285,5.172-2.634,7.761-3.949l7.687-4.085c2.562-1.361,5.083-2.797,7.628-4.192
	c5.093-2.782,10.116-5.692,15.135-8.607c4.511-2.632,8.993-5.316,13.46-8.022l56.896,34.657l0.105,6.759l0.213,9.067l0.233,9.066
	c0.065,3.022,0.205,6.045,0.304,9.067c0.193,6.042,0.45,12.087,0.739,18.132c0.123,3.021,0.319,6.044,0.476,9.065
	c0.154,3.022,0.39,6.045,0.579,9.067c0-0.007,0.001-0.012,0.001-0.019c0,0.007,0,0.014,0,0.02c0.084-1.322,0.176-2.646,0.265-3.966
	c0.113-1.701,0.226-3.402,0.312-5.103c0.158-3.021,0.352-6.044,0.476-9.065c0.289-6.045,0.546-12.09,0.742-18.132
	c0.098-3.022,0.237-6.045,0.3-9.067l0.233-9.066l0.217-9.067l0.104-6.759l57.454-34.998l5.602,3.284l7.552,4.337l7.558,4.321
	c2.512,1.451,5.063,2.835,7.593,4.256c5.059,2.844,10.147,5.633,15.255,8.39c2.541,1.397,5.119,2.731,7.68,4.1
	c2.558,1.37,5.156,2.667,7.729,4.004c0,0-0.001-0.001-0.001-0.002c0,0.001,0.001,0.001,0.001,0.001
	c-0.318-0.227-0.639-0.455-0.957-0.683c-2.062-1.465-4.114-2.947-6.195-4.378c-2.4-1.653-4.784-3.344-7.202-4.968
	c-4.819-3.286-9.651-6.543-14.516-9.743c-2.43-1.601-4.842-3.238-7.29-4.809l-7.325-4.745l-7.334-4.732l-5.732-3.624v-69.134
	L626.135,392.035z M557.883,499.12l-56.551-34.447V395.78l56.551-34.447l2.22,1.352l3.809,2.409
	c2.453,1.562,4.941,3.061,7.408,4.594l14.839,9.149l10.178,6.123l4.755,2.86c2.492,1.489,4.965,3.013,7.474,4.472l3.762,2.206
	l2.106,1.283v68.893l-2.09,1.274l-3.778,2.215c-2.509,1.459-4.983,2.982-7.476,4.471l-8.611,5.184l-6.317,3.8l-14.841,9.149
	c-2.467,1.533-4.955,3.031-7.406,4.594l-3.795,2.398L557.883,499.12z"/>
<path fill="#F1F1F1" d="M446.608,691.362l7.333-4.729l7.326-4.746c2.449-1.569,4.86-3.209,7.293-4.811
	c4.862-3.198,9.696-6.455,14.513-9.743c2.418-1.624,4.802-3.312,7.203-4.968c2.08-1.429,4.133-2.91,6.194-4.377
	c0.319-0.227,0.639-0.458,0.958-0.684c0,0.002-0.002,0.002-0.002,0.002l0.002-0.002c-2.575,1.339-5.172,2.635-7.73,4.006
	c-2.559,1.364-5.138,2.698-7.679,4.099c-5.105,2.758-10.197,5.544-15.255,8.388c-2.53,1.422-5.08,2.808-7.593,4.259l-7.559,4.32
	l-7.55,4.335l-5.603,3.285L381.005,655l-0.105-6.762l-0.215-9.063l-0.232-9.067c-0.065-3.024-0.204-6.045-0.304-9.066
	c-0.193-6.045-0.45-12.089-0.74-18.134c-0.123-3.021-0.318-6.043-0.475-9.067c-0.04-0.779-0.094-1.559-0.143-2.339
	c-0.138-2.242-0.293-4.485-0.434-6.728c0,0.008-0.001,0.013-0.001,0.018c0-0.005-0.001-0.01-0.001-0.018
	c-0.191,3.024-0.424,6.046-0.578,9.066c-0.159,3.024-0.353,6.046-0.476,9.067c-0.29,6.045-0.547,12.089-0.742,18.134
	c-0.098,3.021-0.237,6.042-0.301,9.066l-0.233,9.067l-0.216,9.063L375.705,655l-56.893,34.657c-4.47-2.706-8.952-5.39-13.46-8.022
	c-5.02-2.916-10.043-5.824-15.135-8.607c-2.544-1.395-5.066-2.832-7.629-4.192l-7.688-4.087c-2.588-1.313-5.156-2.662-7.761-3.949
	c-2.602-1.292-5.209-2.57-7.856-3.776c2.315,1.815,4.669,3.558,7.029,5.29c2.356,1.734,4.749,3.407,7.122,5.115l7.198,4.982
	c2.398,1.66,4.838,3.245,7.255,4.874c4.831,3.26,9.73,6.395,14.634,9.524c4.415,2.805,8.859,5.556,13.314,8.287v68.919
	c-4.456,2.731-8.9,5.484-13.316,8.287c-4.902,3.13-9.801,6.265-14.632,9.526c-2.417,1.627-4.857,3.214-7.256,4.875l-7.197,4.979
	c-2.373,1.707-4.764,3.381-7.122,5.118c-2.36,1.729-4.714,3.474-7.029,5.287c2.647-1.206,5.254-2.484,7.857-3.777
	c2.603-1.283,5.172-2.634,7.761-3.948l7.687-4.085c2.563-1.362,5.084-2.797,7.628-4.192c5.093-2.782,10.117-5.693,15.136-8.608
	c4.51-2.634,8.991-5.317,13.46-8.021l56.896,34.656l0.104,6.76l0.216,9.067l0.233,9.064c0.064,3.024,0.204,6.046,0.302,9.066
	c0.195,6.046,0.452,12.091,0.741,18.134c0.123,3.021,0.318,6.045,0.476,9.066c0.154,3.021,0.388,6.044,0.578,9.067
	c0-0.008,0.001-0.013,0.001-0.018c0,0.005,0.001,0.013,0.001,0.018c0.083-1.321,0.174-2.646,0.263-3.966
	c0.115-1.701,0.227-3.4,0.313-5.102c0.158-3.021,0.352-6.045,0.476-9.066c0.289-6.043,0.546-12.088,0.741-18.134
	c0.098-3.021,0.238-6.042,0.302-9.066l0.233-9.064l0.215-9.067l0.104-6.76l57.455-34.998l5.602,3.285l7.551,4.338l7.559,4.317
	c2.511,1.454,5.062,2.837,7.593,4.259c5.058,2.845,10.147,5.633,15.255,8.39c2.541,1.397,5.118,2.731,7.679,4.098
	c2.559,1.37,5.155,2.669,7.73,4.005c0,0-0.002,0-0.002-0.002l0.002,0.002c-0.319-0.226-0.639-0.454-0.958-0.684
	c-2.062-1.467-4.114-2.947-6.194-4.377c-2.401-1.656-4.785-3.344-7.203-4.968c-4.818-3.287-9.65-6.545-14.515-9.743
	c-2.431-1.603-4.842-3.238-7.291-4.811l-7.326-4.746l-7.334-4.729l-5.731-3.624V694.99L446.608,691.362z M378.355,798.449
	l-56.55-34.446V695.11l56.55-34.449l2.22,1.354l3.809,2.409c2.453,1.56,4.94,3.061,7.409,4.593l14.839,9.148l10.177,6.122
	l4.754,2.86c2.493,1.489,4.966,3.013,7.476,4.474l3.762,2.204l2.105,1.285v68.893l-2.09,1.272l-3.778,2.214
	c-2.509,1.462-4.982,2.984-7.476,4.473l-8.611,5.182l-6.317,3.802l-14.84,9.147c-2.468,1.536-4.956,3.034-7.408,4.597l-3.794,2.399
	L378.355,798.449z"/>
<line fill="none" stroke="#2CA8DF" stroke-width="3" stroke-miterlimit="10" x1="379.54" y1="469.448" x2="439.639" y2="504.721"/>
<path fill="#F1F1F1" d="M864.087,612.491l7.334-4.731l7.325-4.746c2.448-1.57,4.86-3.209,7.292-4.808
	c4.862-3.201,9.697-6.458,14.513-9.743c2.419-1.625,4.802-3.313,7.204-4.968c2.08-1.432,4.133-2.914,6.193-4.378
	c0.319-0.229,0.64-0.457,0.959-0.684c0,0-0.002,0-0.002,0.001c0-0.001,0.002-0.001,0.002-0.001
	c-2.575,1.336-5.172,2.633-7.731,4.004c-2.558,1.367-5.138,2.701-7.68,4.099c-5.104,2.758-10.195,5.546-15.253,8.39
	c-2.53,1.422-5.079,2.805-7.594,4.257l-7.558,4.321l-7.55,4.336l-5.604,3.285l-57.455-34.999l-0.104-6.759l-0.215-9.067
	l-0.233-9.066c-0.065-3.021-0.203-6.044-0.303-9.066c-0.194-6.043-0.451-12.089-0.74-18.132c-0.123-3.023-0.318-6.045-0.476-9.067
	c-0.039-0.779-0.093-1.562-0.142-2.342c-0.139-2.241-0.294-4.482-0.434-6.725c0,0.005,0,0.011,0,0.019
	c0-0.007-0.003-0.014-0.003-0.018c-0.19,3.021-0.424,6.043-0.579,9.065c-0.158,3.022-0.352,6.044-0.476,9.067
	c-0.289,6.043-0.544,12.089-0.74,18.132c-0.099,3.022-0.236,6.045-0.302,9.066l-0.232,9.066l-0.215,9.067l-0.104,6.76
	l-56.894,34.657c-4.471-2.706-8.952-5.392-13.461-8.023c-5.021-2.915-10.044-5.825-15.135-8.607
	c-2.545-1.395-5.067-2.83-7.631-4.192l-7.687-4.084c-2.589-1.315-5.156-2.665-7.761-3.95c-2.603-1.291-5.21-2.57-7.856-3.778
	c2.315,1.815,4.668,3.559,7.028,5.289c2.358,1.737,4.75,3.409,7.123,5.117l7.199,4.98c2.396,1.662,4.836,3.249,7.254,4.875
	c4.83,3.262,9.73,6.396,14.634,9.524c4.415,2.805,8.859,5.557,13.313,8.288v68.92c-4.456,2.73-8.898,5.482-13.316,8.288
	c-4.9,3.128-9.801,6.263-14.631,9.523c-2.418,1.627-4.857,3.214-7.257,4.875l-7.196,4.981c-2.373,1.707-4.765,3.379-7.123,5.116
	c-2.36,1.732-4.713,3.474-7.028,5.29c2.646-1.208,5.254-2.488,7.856-3.778c2.602-1.285,5.172-2.636,7.761-3.951l7.687-4.084
	c2.563-1.362,5.084-2.797,7.628-4.192c5.094-2.782,10.116-5.692,15.136-8.607c4.511-2.632,8.992-5.316,13.461-8.022l56.896,34.658
	l0.104,6.759l0.215,9.066l0.232,9.066c0.065,3.021,0.205,6.044,0.304,9.066c0.194,6.044,0.449,12.089,0.738,18.133
	c0.124,3.022,0.32,6.045,0.476,9.065c0.155,3.023,0.391,6.044,0.579,9.066c0-0.005,0.003-0.01,0.003-0.017c0,0.007,0,0.013,0,0.019
	c0.084-1.322,0.174-2.645,0.264-3.967c0.114-1.699,0.226-3.401,0.312-5.102c0.159-3.021,0.353-6.043,0.476-9.065
	c0.289-6.044,0.546-12.089,0.742-18.133c0.098-3.022,0.237-6.045,0.301-9.066l0.233-9.066l0.217-9.066l0.103-6.759l57.455-34.999
	l5.602,3.284l7.552,4.337l7.558,4.32c2.512,1.452,5.063,2.836,7.594,4.257c5.058,2.845,10.146,5.632,15.253,8.391
	c2.542,1.397,5.119,2.73,7.68,4.1c2.56,1.37,5.156,2.667,7.731,4.004c0,0-0.002-0.001-0.002-0.003c0,0.002,0.002,0.002,0.002,0.002
	c-0.319-0.227-0.64-0.455-0.959-0.684c-2.061-1.465-4.113-2.947-6.193-4.378c-2.402-1.653-4.785-3.344-7.204-4.969
	c-4.818-3.285-9.65-6.541-14.515-9.743c-2.43-1.599-4.842-3.237-7.29-4.807l-7.325-4.747l-7.334-4.731l-5.732-3.624v-69.134
	L864.087,612.491z M795.834,719.576l-56.55-34.447v-68.893l56.55-34.447l2.22,1.352l3.809,2.408
	c2.453,1.562,4.942,3.062,7.409,4.594l14.839,9.15l10.178,6.122l4.755,2.86c2.492,1.489,4.965,3.013,7.475,4.472l3.761,2.206
	l2.105,1.283v68.893l-2.09,1.273l-3.776,2.215c-2.51,1.459-4.985,2.983-7.478,4.473l-8.609,5.183l-6.318,3.8l-14.841,9.149
	c-2.467,1.532-4.956,3.031-7.406,4.594l-3.794,2.399L795.834,719.576z"/>
<g>
	<g>
		<polygon fill="none" stroke="#BF272D" stroke-width="5" stroke-miterlimit="10" points="677.064,288.654 736.6,252.388 
			796.135,288.654 796.135,361.185 736.6,397.45 677.064,361.185 		"/>
		<g>
			<path fill="#BF272D" d="M855.673,252.67c-2.399,1.645-4.781,3.318-7.194,4.94l-7.238,4.869l-7.267,4.822l-7.299,4.768l-7.31,4.75
				l-7.343,4.697l-7.345,4.693l-7.382,4.632l-1.129,0.708l-1.193-0.708c-4.995-2.965-10.018-5.888-14.979-8.909l-14.924-9.001
				l-14.852-9.12l-7.421-4.567l-7.382-4.633l-1.109-0.696l0.019-1.246c0.089-6.044,0.135-12.089,0.292-18.133
				c0.142-6.044,0.241-12.089,0.45-18.133l0.278-9.066l0.353-9.066l0.406-9.066c0.129-3.022,0.332-6.044,0.495-9.066
				c0.163,3.022,0.366,6.044,0.495,9.066l0.406,9.066l0.353,9.066l0.278,9.066c0.209,6.044,0.309,12.088,0.45,18.133
				c0.157,6.044,0.203,12.088,0.292,18.133l-1.091-1.942l7.502,4.434l7.463,4.5l14.916,9.014l14.844,9.132
				c4.96,3.024,9.861,6.146,14.787,9.225h-2.32l7.502-4.435l7.54-4.374l7.541-4.37l7.575-4.315l7.585-4.299l7.618-4.245l7.647-4.198
				C850.531,255.396,853.11,254.047,855.673,252.67z"/>
		</g>
		<g>
			<path fill="#BF272D" d="M617.527,252.388c2.562,1.377,5.142,2.726,7.689,4.126l7.646,4.198l7.618,4.245l7.585,4.299l7.575,4.315
				l7.541,4.37l7.54,4.373l7.502,4.435l1.053,0.622l0.018,1.281l0.131,9.111c0.055,3.037,0.059,6.074,0.077,9.11l0.101,18.221
				l-0.057,18.222c-0.017,3.037-0.004,6.074-0.054,9.111l-0.111,9.111l-0.016,1.356l-1.148,0.609
				c-4.93,2.618-9.87,5.219-14.839,7.767l-7.439,3.847l-7.469,3.793l-7.479,3.774l-7.511,3.717c-2.498,1.249-5.025,2.445-7.536,3.67
				c-2.512,1.225-5.053,2.395-7.577,3.596c2.374-1.477,4.73-2.984,7.118-4.436c2.387-1.452,4.758-2.934,7.157-4.362l7.185-4.314
				l7.215-4.257l7.226-4.239l7.255-4.185c4.828-2.806,9.684-5.56,14.55-8.296l-1.163,1.965l-0.132-9.111
				c-0.057-3.037-0.05-6.074-0.073-9.11l-0.098-18.221l0.06-18.222c0.012-3.037,0.009-6.074,0.058-9.111l0.11-9.111l1.069,1.903
				l-7.382-4.632l-7.345-4.693l-7.342-4.697l-7.311-4.751l-7.299-4.768l-7.266-4.822l-7.238-4.869
				C622.309,255.707,619.927,254.033,617.527,252.388z"/>
		</g>
		<g>
			<path fill="#BF272D" d="M736.6,396.045c2.337-1.748,4.707-3.439,7.083-5.122c2.373-1.688,4.778-3.323,7.166-4.988l7.229-4.883
				c2.407-1.631,4.854-3.198,7.279-4.8c4.849-3.207,9.752-6.324,14.664-9.427c4.914-3.099,9.858-6.15,14.814-9.181l1.299-0.795
				l1.301,0.795c4.958,3.028,9.902,6.079,14.817,9.176c4.911,3.105,9.818,6.216,14.665,9.425c2.426,1.602,4.87,3.172,7.279,4.8
				l7.229,4.884c2.387,1.665,4.791,3.302,7.164,4.99c2.375,1.684,4.745,3.376,7.081,5.125c-2.626-1.273-5.217-2.603-7.803-3.941
				c-2.588-1.334-5.146-2.719-7.72-4.077l-7.655-4.183c-2.552-1.394-5.068-2.846-7.604-4.266
				c-5.076-2.835-10.091-5.769-15.103-8.708c-5.007-2.947-9.985-5.941-14.95-8.958h2.6c-4.967,3.014-9.945,6.007-14.953,8.953
				c-5.011,2.941-10.029,5.868-15.104,8.706c-2.536,1.42-5.051,2.875-7.604,4.266l-7.655,4.183c-2.573,1.358-5.13,2.745-7.718,4.079
				C741.815,393.44,739.225,394.771,736.6,396.045z"/>
		</g>
	</g>
</g>
<g>
	<g>
		<g>
			<path fill="#2CA8DF" d="M260.146,253.875c-2.399,1.645-4.781,3.318-7.194,4.94l-7.237,4.869l-7.266,4.822l-7.299,4.768
				l-7.309,4.751l-7.342,4.697l-7.345,4.693l-7.382,4.632l-1.128,0.708l-1.193-0.708c-4.996-2.965-10.018-5.888-14.98-8.909
				l-14.924-9.001l-14.852-9.12l-7.421-4.567l-7.382-4.633l-1.109-0.696l0.018-1.246c0.089-6.044,0.135-12.088,0.292-18.133
				c0.141-6.044,0.241-12.088,0.45-18.133l0.278-9.066l0.353-9.066l0.405-9.066c0.129-3.022,0.333-6.044,0.496-9.066
				c0.163,3.022,0.366,6.044,0.496,9.066l0.405,9.066l0.353,9.066l0.278,9.066c0.209,6.044,0.309,12.088,0.45,18.133
				c0.158,6.044,0.204,12.088,0.292,18.133l-1.091-1.942l7.503,4.434l7.463,4.5l14.917,9.014l14.844,9.132
				c4.961,3.023,9.862,6.146,14.789,9.225h-2.321l7.502-4.435l7.54-4.374l7.542-4.37l7.575-4.316l7.584-4.298l7.618-4.245
				l7.646-4.198C255.004,256.602,257.583,255.253,260.146,253.875z"/>
		</g>
		<g>
			<path fill="#2CA8DF" d="M81.537,289.861c0.283,3.022,0.497,6.044,0.701,9.067c0.206,3.022,0.358,6.044,0.54,9.066l0.414,9.066
				c0.078,1.511,0.108,3.022,0.164,4.534l0.148,4.533c0.224,6.044,0.314,12.089,0.417,18.133c0.079,6.044,0.117,12.089,0.113,18.133
				l-0.001,1.41l-1.197,0.722l-7.462,4.5l-7.496,4.445l-7.53,4.388c-2.51,1.463-5.045,2.884-7.575,4.314
				c-2.537,1.419-5.047,2.881-7.605,4.266l-7.654,4.185c-2.573,1.359-5.127,2.75-7.716,4.083c-2.584,1.342-5.174,2.673-7.796,3.952
				c2.339-1.744,4.71-3.434,7.088-5.114c2.373-1.688,4.78-3.32,7.168-4.983l7.23-4.881c2.404-1.638,4.854-3.198,7.279-4.801
				c2.432-1.592,4.857-3.193,7.309-4.751l7.354-4.678l7.389-4.621l7.422-4.567l-1.198,2.132c-0.004-6.044,0.034-12.089,0.113-18.133
				c0.103-6.044,0.193-12.089,0.417-18.133l0.148-4.533c0.055-1.511,0.085-3.022,0.164-4.534l0.414-9.066
				c0.182-3.022,0.334-6.044,0.54-9.066C81.041,295.905,81.254,292.883,81.537,289.861z"/>
		</g>
		<g>
			<path fill="#2CA8DF" d="M141.075,470.907c-0.162-3.022-0.363-6.044-0.493-9.066l-0.404-9.066l-0.352-9.066l-0.276-9.066
				c-0.089-3.022-0.195-6.045-0.25-9.066l-0.199-9.066c-0.063-3.022-0.146-6.045-0.174-9.066l-0.12-9.067l-0.017-1.241l1.104-0.696
				c4.915-3.099,9.843-6.175,14.801-9.203l14.849-9.124l14.924-9c2.488-1.498,4.969-3.01,7.476-4.478l7.502-4.434l1.196-0.707
				l1.131,0.707c4.927,3.079,9.842,6.176,14.727,9.324l7.342,4.698l7.31,4.75l7.299,4.768l7.265,4.824
				c2.427,1.599,4.824,3.248,7.237,4.87c2.414,1.621,4.794,3.296,7.193,4.942c-2.562-1.376-5.143-2.724-7.691-4.125
				c-2.548-1.4-5.113-2.772-7.647-4.196l-7.619-4.243l-7.585-4.298l-7.574-4.316l-7.542-4.369
				c-5.038-2.896-10.045-5.844-15.041-8.809h2.327l-7.381,4.633c-2.455,1.554-4.936,3.064-7.408,4.588l-14.843,9.132l-14.919,9.009
				c-4.965,3.016-9.959,5.984-14.967,8.93l1.088-1.937l-0.12,9.067c-0.028,3.021-0.111,6.044-0.174,9.066l-0.199,9.066
				c-0.055,3.021-0.161,6.044-0.25,9.066l-0.276,9.066l-0.352,9.066l-0.404,9.066C141.438,464.863,141.236,467.885,141.075,470.907z
				"/>
		</g>
		<polygon fill="none" stroke="#2CA8DF" stroke-width="5" stroke-miterlimit="10" points="81.537,289.861 141.072,253.595 
			200.607,289.861 200.607,362.394 141.072,398.659 81.537,362.394 		"/>
	</g>
	<g>
		<g opacity="0.3">
			<path d="M132.383,368.621"/>
		</g>
		<g>
			<g>
				<path fill="#969696" d="M132.383,366.621"/>
			</g>
		</g>
	</g>
</g>
<polyline fill="none" stroke="#BF272D" stroke-width="3" stroke-miterlimit="10" points="797.399,578.613 856.937,614.88 
	856.937,902 "/>
<polyline fill="none" stroke="#BF272D" stroke-width="3" stroke-miterlimit="10" points="498.337,394.126 557.873,357.861 
	617.408,394.126 617.408,466.658 676.945,502.642 736.482,466.658 736.482,394.126 "/>
<polyline fill="none" stroke="#2CA8DF" stroke-width="3" stroke-miterlimit="10" points="200.607,362.394 260.146,398.375 
	319.683,362.394 379.218,398.375 379.218,469.502 "/>
<path fill="none" stroke="#2CA8DF" stroke-width="3" stroke-miterlimit="10" d="M23.641,2.12l-0.738,252.464
	c0,0,38.948,24.088,59.093,35.426"/>
<polyline fill="none" stroke="#BF272D" stroke-width="3" stroke-miterlimit="10" points="737.104,466.502 796.639,505.227 
	795.972,578.299 "/>
<polyline fill="none" stroke="#BF272D" stroke-width="3" stroke-miterlimit="10" points="499.267,392.508 498.065,466.399 
	440.073,503.85 "/>
<g>
	<ellipse fill="#2CA8DF" cx="81.996" cy="290.01" rx="9.115" ry="9.617"/>
	<ellipse fill="#F1F1F1" cx="81.996" cy="290.01" rx="5.638" ry="5.948"/>
</g>
<g>
	<ellipse fill="#2CA8DF" cx="438.919" cy="503.66" rx="9.115" ry="9.618"/>
	<ellipse fill="#F1F1F1" cx="438.919" cy="503.66" rx="5.638" ry="5.95"/>
</g>
<g>
	<ellipse fill="#BF272D" cx="795.97" cy="578.018" rx="9.115" ry="9.615"/>
	<ellipse fill="#F1F1F1" cx="795.971" cy="578.018" rx="5.638" ry="5.947"/>
</g>
<line fill="#F1F1F1" x1="505.028" y1="465.269" x2="448.135" y2="499.926"/>
<line fill="#F1F1F1" x1="505.028" y1="465.269" x2="448.135" y2="499.926"/>
<path fill="none" stroke="#BF272D" stroke-width="3" stroke-miterlimit="10" d="M498.879,466.057"/>
<path fill="none" stroke="#BF272D" stroke-width="3" stroke-miterlimit="10" d="M440.073,503.85"/>
<path fill="none" stroke="#BF272D" stroke-width="3" stroke-miterlimit="10" d="M499.182,392.546"/>
<path fill="none" stroke="#BF272D" stroke-width="3" stroke-miterlimit="10" d="M498.263,465.684"/>
<path fill="#979797" d="M737.359,359.51c17.72,0,32.084-15.155,32.085-33.851c0-18.694-14.365-33.851-32.085-33.851
	c-17.718,0-32.084,15.155-32.084,33.851S719.642,359.51,737.359,359.51z M737.359,298.157c14.398,0,26.069,12.313,26.069,27.502
	c-0.001,15.191-11.672,27.504-26.069,27.504s-26.067-12.314-26.067-27.504C711.292,310.47,722.962,298.157,737.359,298.157z
	 M755.407,308.735c1.104,0,2.006,0.952,2.006,2.115v6.346c0,2.327-1.806,4.232-4.012,4.232h-8.021c-2.205,0-4.01-1.905-4.01-4.232
	h-8.021c0,2.327-1.807,4.232-4.012,4.232h-8.021c-2.206,0-4.01-1.905-4.01-4.232v-6.346c0-1.164,0.901-2.116,2.004-2.116
	l12.033,0.001c1.102,0,2.006,0.952,2.006,2.115v2.116h8.021v-2.116c0-1.163,0.901-2.115,2.004-2.115H755.407z M737.358,342.585
	c5.842,0,10.953-3.294,13.76-8.216l3.438,2.175c-3.508,6.154-9.896,10.271-17.197,10.271c-3.035,0-5.914-0.713-8.493-1.988
	l2.078-3.655C732.909,342.079,735.078,342.585,737.358,342.585z"/>
<path fill="#979797" d="M123.009,327.059c0-0.735,0.041-1.46,0.116-2.174l-10.589-3.63c-0.338,1.88-0.518,3.82-0.518,5.804
	c0,8.893,3.558,16.907,9.254,22.549l6.542-9.501C124.831,336.669,123.009,332.09,123.009,327.059z M159.646,327.059
	c0,5.031-1.821,9.61-4.805,13.048l6.541,9.501c5.695-5.642,9.254-13.657,9.254-22.549c0-1.984-0.18-3.924-0.518-5.804l-10.588,3.63
	C159.605,325.599,159.646,326.324,159.646,327.059z M144.99,308.119c5.263,1.128,9.706,4.635,12.277,9.411l10.588-3.628
	c-4.19-9.388-12.722-16.191-22.865-17.524V308.119z M125.387,317.53c2.571-4.776,7.014-8.283,12.276-9.411v-11.742
	c-10.143,1.333-18.674,8.137-22.865,17.523L125.387,317.53z M148.915,344.655c-2.311,1.112-4.88,1.73-7.588,1.73
	c-2.707,0-5.276-0.618-7.587-1.73l-6.543,9.501c4.19,2.437,9.007,3.826,14.13,3.826c5.125,0,9.94-1.389,14.13-3.826L148.915,344.655
	z"/>
<path fill="#F1F1F1" d="M208.608,690.362l7.332-4.729l7.326-4.746c2.449-1.569,4.86-3.209,7.293-4.811
	c4.862-3.198,9.696-6.455,14.513-9.743c2.418-1.624,4.802-3.312,7.203-4.968c2.08-1.429,4.133-2.91,6.194-4.377
	c0.319-0.227,0.639-0.458,0.958-0.684c0,0.002-0.002,0.002-0.002,0.002l0.002-0.002c-2.575,1.339-5.172,2.635-7.73,4.006
	c-2.559,1.364-5.138,2.698-7.679,4.099c-5.105,2.758-10.197,5.544-15.255,8.388c-2.53,1.422-5.08,2.808-7.593,4.259l-7.559,4.32
	l-7.55,4.335l-5.603,3.285L143.005,654l-0.105-6.762l-0.215-9.063l-0.232-9.067c-0.065-3.024-0.204-6.045-0.304-9.066
	c-0.193-6.045-0.45-12.089-0.74-18.134c-0.122-3.021-0.318-6.043-0.475-9.067c-0.04-0.779-0.095-1.559-0.143-2.339
	c-0.138-2.242-0.293-4.485-0.434-6.728c0,0.008-0.001,0.013-0.001,0.018c0-0.005-0.001-0.01-0.001-0.018
	c-0.191,3.024-0.424,6.046-0.578,9.066c-0.159,3.024-0.353,6.046-0.476,9.067c-0.29,6.045-0.547,12.089-0.742,18.134
	c-0.098,3.021-0.237,6.042-0.301,9.066l-0.233,9.067l-0.216,9.063L137.705,654l-56.893,34.657c-4.47-2.706-8.952-5.39-13.46-8.022
	c-5.02-2.916-10.043-5.824-15.135-8.607c-2.544-1.395-5.066-2.832-7.629-4.192l-7.688-4.087c-2.588-1.313-5.156-2.662-7.761-3.949
	c-2.602-1.292-5.209-2.57-7.856-3.776c2.315,1.815,4.669,3.558,7.029,5.29c2.356,1.734,4.749,3.407,7.122,5.115l7.198,4.982
	c2.398,1.66,4.838,3.245,7.255,4.874c4.831,3.26,9.73,6.395,14.634,9.524c4.415,2.805,8.859,5.556,13.314,8.287v68.919
	c-4.456,2.731-8.9,5.484-13.316,8.287c-4.902,3.13-9.801,6.265-14.632,9.526c-2.417,1.627-4.857,3.214-7.256,4.875l-7.197,4.979
	c-2.373,1.707-4.764,3.381-7.122,5.118c-2.36,1.729-4.714,3.474-7.029,5.287c2.647-1.206,5.254-2.484,7.857-3.777
	c2.603-1.283,5.172-2.634,7.761-3.948l7.687-4.085c2.563-1.362,5.084-2.797,7.628-4.192c5.093-2.782,10.117-5.693,15.136-8.608
	c4.51-2.634,8.991-5.317,13.46-8.021l56.896,34.656l0.104,6.76l0.216,9.067l0.233,9.064c0.064,3.024,0.204,6.046,0.302,9.066
	c0.195,6.046,0.452,12.091,0.741,18.134c0.123,3.021,0.318,6.045,0.476,9.066c0.154,3.021,0.388,6.044,0.578,9.067
	c0-0.008,0.001-0.013,0.001-0.018c0,0.005,0.001,0.013,0.001,0.018c0.083-1.321,0.174-2.646,0.263-3.966
	c0.115-1.701,0.227-3.4,0.313-5.102c0.157-3.021,0.353-6.045,0.476-9.066c0.289-6.043,0.546-12.088,0.74-18.134
	c0.099-3.021,0.238-6.042,0.303-9.066l0.232-9.064l0.216-9.067l0.104-6.76l57.455-34.998l5.602,3.285l7.551,4.338l7.559,4.317
	c2.511,1.454,5.062,2.837,7.593,4.259c5.058,2.845,10.147,5.633,15.255,8.39c2.541,1.397,5.118,2.731,7.679,4.098
	c2.559,1.37,5.155,2.669,7.73,4.005c0,0-0.002,0-0.002-0.002l0.002,0.002c-0.319-0.226-0.639-0.454-0.958-0.684
	c-2.062-1.467-4.114-2.947-6.194-4.377c-2.401-1.656-4.785-3.344-7.203-4.968c-4.818-3.287-9.65-6.545-14.515-9.743
	c-2.431-1.603-4.842-3.238-7.291-4.811l-7.326-4.746l-7.334-4.729l-5.73-3.624V693.99L208.608,690.362z M140.355,797.449
	l-56.55-34.446V694.11l56.55-34.449l2.22,1.354l3.809,2.409c2.453,1.56,4.94,3.061,7.408,4.593l14.84,9.148l10.177,6.122l4.754,2.86
	c2.493,1.489,4.966,3.013,7.476,4.474l3.762,2.204l2.105,1.285v68.893l-2.09,1.272l-3.778,2.214
	c-2.509,1.462-4.982,2.984-7.476,4.473l-8.611,5.182l-6.317,3.802l-14.841,9.147c-2.468,1.536-4.955,3.034-7.407,4.597l-3.794,2.399
	L140.355,797.449z"/>
</svg>
