<?xml version="1.0" encoding="utf-8"?>
<!-- Generator: Adobe Illustrator 16.0.4, SVG Export Plug-In . SVG Version: 6.00 Build 0)  -->
<!DOCTYPE svg PUBLIC "-//W3C//DTD SVG 1.1//EN" "http://www.w3.org/Graphics/SVG/1.1/DTD/svg11.dtd">
<svg version="1.1" id="Layer_1" xmlns="http://www.w3.org/2000/svg" xmlns:xlink="http://www.w3.org/1999/xlink" x="0px" y="0px"
	 width="914.4px" height="887px" viewBox="0 4 914.4 887" enable-background="new 0 4 914.4 887" xml:space="preserve">
<g id="Layer_3">
</g>
<path fill="#F1F1F1" d="M618.243,378.766l7.341-4.558l7.331-4.573c2.45-1.511,4.864-3.091,7.299-4.632
	c4.866-3.084,9.705-6.222,14.527-9.388c2.421-1.564,4.807-3.191,7.21-4.787c2.083-1.378,4.137-2.808,6.2-4.219
	c0.318-0.22,0.641-0.439,0.958-0.659c0,0-0.001,0-0.001,0.001c0-0.001,0.001-0.001,0.001-0.001
	c-2.574,1.286-5.176,2.536-7.734,3.855c-2.562,1.316-5.143,2.601-7.686,3.947c-5.108,2.656-10.204,5.341-15.268,8.079
	c-2.53,1.369-5.081,2.702-7.599,4.099l-7.563,4.162l-7.557,4.177l-5.608,3.165l-57.405-33.883l-0.095-6.527l-0.202-8.755
	l-0.221-8.754c-0.061-2.919-0.193-5.837-0.29-8.757c-0.185-5.836-0.433-11.674-0.713-17.511c-0.12-2.919-0.312-5.837-0.463-8.756
	c-0.039-0.753-0.093-1.508-0.141-2.261c-0.135-2.164-0.287-4.33-0.425-6.496c0,0.007,0,0.011,0,0.018
	c0-0.005-0.001-0.011-0.001-0.016c-0.196,2.917-0.435,5.835-0.592,8.753c-0.163,2.918-0.362,5.836-0.489,8.755
	c-0.298,5.836-0.563,11.673-0.767,17.509c-0.104,2.918-0.244,5.837-0.315,8.756l-0.245,8.753l-0.226,8.755l-0.115,6.528
	l-56.942,33.385c-4.467-2.62-8.944-5.219-13.448-7.768c-5.018-2.823-10.037-5.639-15.125-8.334
	c-2.542-1.353-5.062-2.741-7.624-4.061l-7.682-3.955c-2.586-1.273-5.153-2.581-7.757-3.827c-2.599-1.251-5.204-2.489-7.849-3.659
	c2.312,1.756,4.663,3.442,7.022,5.12c2.353,1.68,4.744,3.298,7.116,4.95l7.189,4.822c2.397,1.607,4.834,3.143,7.25,4.717
	c4.825,3.157,9.721,6.19,14.62,9.218c4.411,2.716,8.852,5.379,13.302,8.023l-0.097,66.554c-4.461,2.631-8.906,5.281-13.327,7.984
	c-4.907,3.015-9.812,6.035-14.646,9.176c-2.42,1.567-4.861,3.096-7.265,4.697l-7.202,4.798c-2.376,1.646-4.77,3.257-7.13,4.932
	c-2.363,1.668-4.72,3.349-7.037,5.097c2.648-1.162,5.257-2.393,7.862-3.637c2.604-1.236,5.176-2.536,7.767-3.802l7.692-3.934
	c2.564-1.311,5.087-2.693,7.634-4.038c5.097-2.679,10.124-5.481,15.147-8.288c4.515-2.536,9-5.12,13.472-7.728l56.847,33.551
	l0.096,6.526l0.2,8.758l0.22,8.754c0.062,2.919,0.196,5.838,0.292,8.758c0.184,5.834,0.432,11.672,0.713,17.511
	c0.118,2.916,0.311,5.836,0.464,8.754c0.148,2.919,0.381,5.839,0.565,8.756c0-0.006,0.001-0.011,0.001-0.018
	c0,0.007,0,0.014,0,0.019c0.086-1.276,0.18-2.554,0.271-3.828c0.116-1.644,0.23-3.286,0.319-4.929
	c0.162-2.917,0.36-5.836,0.489-8.752c0.297-5.838,0.562-11.675,0.768-17.509c0.102-2.919,0.245-5.838,0.312-8.757l0.246-8.753
	l0.229-8.757l0.113-6.526l57.503-33.713l5.599,3.18l7.545,4.199l7.552,4.183c2.51,1.405,5.06,2.746,7.587,4.123
	c5.056,2.753,10.14,5.454,15.243,8.123c2.539,1.354,5.115,2.646,7.675,3.971c2.556,1.327,5.152,2.583,7.723,3.877
	c0,0-0.001-0.001-0.001-0.002c0,0.001,0.001,0.001,0.001,0.001c-0.317-0.219-0.638-0.438-0.956-0.66
	c-2.06-1.417-4.109-2.852-6.188-4.236c-2.397-1.601-4.779-3.236-7.194-4.809c-4.815-3.18-9.643-6.332-14.503-9.43
	c-2.428-1.55-4.838-3.134-7.282-4.654l-7.318-4.593l-7.328-4.581l-5.727-3.508l0.098-66.761L618.243,378.766z M549.84,482.076
	l-56.503-33.348l0.097-66.528l56.601-33.183l2.218,1.309l3.806,2.332c2.45,1.512,4.937,2.964,7.401,4.447l14.826,8.857l10.17,5.928
	l4.751,2.769c2.49,1.441,4.961,2.917,7.467,4.329l3.759,2.136l2.104,1.242l-0.097,66.528l-2.092,1.229l-3.781,2.133
	c-2.511,1.404-4.988,2.872-7.482,4.307l-8.618,4.993l-6.323,3.661l-14.854,8.812c-2.469,1.479-4.959,2.921-7.413,4.427l-3.798,2.311
	L549.84,482.076z"/>
<path fill="#F1F1F1" d="M438.293,667.56l7.339-4.557l7.333-4.572c2.452-1.512,4.865-3.093,7.3-4.636
	c4.867-3.081,9.705-6.22,14.526-9.388c2.42-1.564,4.808-3.191,7.21-4.786c2.082-1.378,4.137-2.805,6.201-4.219
	c0.318-0.219,0.639-0.441,0.959-0.659c0,0.002-0.002,0.002-0.002,0.002l0.002-0.002c-2.577,1.289-5.176,2.538-7.736,3.857
	c-2.561,1.313-5.142,2.598-7.685,3.948c-5.109,2.655-10.205,5.338-15.267,8.077c-2.533,1.369-5.084,2.704-7.599,4.101l-7.565,4.161
	l-7.556,4.176l-5.607,3.164l-57.406-33.88l-0.095-6.529l-0.202-8.753l-0.22-8.755c-0.06-2.921-0.196-5.84-0.291-8.756
	c-0.185-5.838-0.433-11.675-0.714-17.513c-0.119-2.918-0.31-5.836-0.462-8.758c-0.039-0.751-0.093-1.505-0.14-2.258
	c-0.135-2.166-0.287-4.332-0.424-6.497c0,0.008-0.001,0.013-0.001,0.017c0-0.004-0.001-0.009-0.001-0.017
	c-0.196,2.919-0.432,5.838-0.591,8.753c-0.164,2.92-0.362,5.838-0.489,8.756c-0.298,5.837-0.564,11.673-0.767,17.511
	c-0.103,2.917-0.246,5.834-0.314,8.754l-0.245,8.755l-0.229,8.753l-0.114,6.53L310.5,665.726c-4.467-2.619-8.944-5.219-13.449-7.768
	c-5.016-2.822-10.035-5.639-15.124-8.332c-2.542-1.352-5.062-2.743-7.623-4.061l-7.682-3.957c-2.586-1.272-5.152-2.579-7.755-3.825
	c-2.601-1.252-5.206-2.489-7.852-3.658c2.313,1.756,4.664,3.442,7.022,5.119c2.353,1.677,4.744,3.297,7.115,4.95l7.19,4.821
	c2.396,1.606,4.834,3.142,7.249,4.717c4.826,3.155,9.72,6.19,14.62,9.219c4.411,2.716,8.851,5.378,13.302,8.021l-0.097,66.555
	c-4.46,2.631-8.907,5.283-13.327,7.982c-4.907,3.017-9.81,6.036-14.645,9.179c-2.419,1.567-4.862,3.097-7.264,4.696l-7.204,4.797
	c-2.375,1.646-4.769,3.259-7.129,4.934c-2.362,1.666-4.719,3.349-7.037,5.095c2.649-1.161,5.257-2.392,7.863-3.636
	c2.604-1.234,5.176-2.536,7.767-3.801l7.692-3.934c2.565-1.312,5.088-2.693,7.634-4.037c5.098-2.68,10.125-5.483,15.149-8.291
	c4.514-2.537,8.998-5.121,13.471-7.727l56.847,33.551l0.095,6.528l0.203,8.757l0.221,8.752c0.059,2.921,0.195,5.84,0.289,8.756
	c0.186,5.839,0.435,11.677,0.716,17.513c0.118,2.917,0.309,5.838,0.462,8.755c0.15,2.919,0.379,5.837,0.565,8.757
	c0-0.008,0.001-0.012,0.001-0.017c0,0.005,0.001,0.012,0.001,0.017c0.085-1.275,0.178-2.554,0.269-3.829
	c0.118-1.643,0.232-3.283,0.32-4.927c0.163-2.917,0.36-5.837,0.489-8.754c0.297-5.835,0.563-11.672,0.767-17.51
	c0.102-2.918,0.247-5.835,0.314-8.755l0.246-8.752l0.228-8.757l0.113-6.527l57.505-33.713l5.597,3.181l7.544,4.2l7.554,4.179
	c2.508,1.408,5.057,2.747,7.587,4.125c5.054,2.754,10.138,5.454,15.243,8.124c2.538,1.352,5.114,2.645,7.673,3.969
	c2.558,1.326,5.151,2.585,7.725,3.879c0,0-0.002,0-0.002-0.002l0.002,0.002c-0.319-0.219-0.64-0.438-0.957-0.662
	c-2.061-1.42-4.11-2.853-6.188-4.235c-2.398-1.604-4.78-3.236-7.196-4.809c-4.812-3.181-9.64-6.334-14.501-9.43
	c-2.428-1.552-4.837-3.135-7.284-4.656l-7.32-4.594l-7.327-4.577l-5.725-3.509l0.097-66.761L438.293,667.56z M369.889,770.871
	l-56.501-33.347l0.097-66.528l56.599-33.185l2.218,1.311l3.805,2.332c2.451,1.51,4.936,2.964,7.403,4.446l14.826,8.855l10.169,5.927
	l4.75,2.77c2.491,1.44,4.961,2.917,7.469,4.331l3.76,2.134l2.103,1.244l-0.097,66.528l-2.092,1.226l-3.781,2.133
	c-2.511,1.408-4.986,2.874-7.482,4.308l-8.619,4.991l-6.323,3.664l-14.853,8.811c-2.47,1.479-4.96,2.923-7.414,4.428l-3.798,2.312
	L369.889,770.871z"/>
<line fill="none" stroke="#2CA8DF" stroke-width="3" stroke-miterlimit="10" x1="371.538" y1="453.161" x2="431.588" y2="487.312"/>
<path fill="#F1F1F1" d="M855.884,592.004l7.341-4.559l7.331-4.572c2.45-1.512,4.864-3.091,7.299-4.632
	c4.866-3.083,9.706-6.222,14.527-9.388c2.421-1.564,4.806-3.191,7.211-4.786c2.081-1.38,4.137-2.809,6.198-4.219
	c0.319-0.221,0.642-0.44,0.96-0.66c0,0-0.002,0-0.002,0.001c0-0.001,0.002-0.001,0.002-0.001c-2.577,1.288-5.176,2.536-7.736,3.856
	c-2.561,1.315-5.143,2.6-7.687,3.946c-5.107,2.656-10.202,5.341-15.265,8.08c-2.531,1.369-5.083,2.702-7.6,4.101l-7.563,4.161
	l-7.557,4.177l-5.608,3.163l-57.405-33.882l-0.096-6.527l-0.202-8.756l-0.219-8.755c-0.062-2.918-0.195-5.837-0.29-8.756
	c-0.187-5.835-0.435-11.675-0.715-17.511c-0.119-2.919-0.31-5.838-0.464-8.757c-0.038-0.752-0.091-1.508-0.139-2.262
	c-0.135-2.164-0.287-4.327-0.425-6.494c0,0.004,0,0.01,0,0.018c0-0.007-0.003-0.014-0.003-0.017
	c-0.193,2.916-0.433,5.835-0.592,8.752c-0.161,2.919-0.36,5.837-0.488,8.756c-0.298,5.835-0.562,11.674-0.766,17.509
	c-0.104,2.919-0.244,5.837-0.314,8.755l-0.246,8.754l-0.228,8.757l-0.112,6.526l-56.943,33.385c-4.468-2.62-8.944-5.22-13.45-7.768
	c-5.017-2.821-10.035-5.639-15.122-8.334c-2.543-1.35-5.063-2.739-7.625-4.059l-7.682-3.956c-2.588-1.271-5.152-2.58-7.756-3.825
	c-2.601-1.251-5.206-2.489-7.85-3.659c2.312,1.756,4.663,3.443,7.02,5.118c2.356,1.68,4.745,3.298,7.116,4.95l7.192,4.82
	c2.393,1.609,4.831,3.145,7.246,4.719c4.826,3.156,9.722,6.189,14.621,9.218c4.411,2.716,8.852,5.38,13.302,8.023l-0.098,66.555
	c-4.46,2.63-8.906,5.281-13.328,7.984c-4.903,3.013-9.81,6.034-14.645,9.175c-2.42,1.567-4.86,3.097-7.264,4.697l-7.203,4.799
	c-2.375,1.646-4.77,3.257-7.13,4.931c-2.362,1.669-4.718,3.348-7.035,5.098c2.647-1.162,5.258-2.394,7.861-3.636
	c2.604-1.237,5.175-2.538,7.766-3.805l7.693-3.933c2.564-1.312,5.088-2.693,7.634-4.037c5.098-2.679,10.124-5.482,15.148-8.289
	c4.515-2.535,8.999-5.121,13.472-7.728l56.848,33.552l0.094,6.527l0.202,8.756l0.22,8.755c0.062,2.917,0.196,5.836,0.291,8.755
	c0.186,5.838,0.433,11.675,0.713,17.513c0.12,2.918,0.312,5.837,0.463,8.754c0.15,2.919,0.383,5.838,0.566,8.756
	c0-0.005,0.003-0.01,0.003-0.017c0,0.007,0,0.013,0,0.019c0.086-1.277,0.178-2.554,0.27-3.83c0.117-1.641,0.23-3.284,0.319-4.928
	c0.163-2.916,0.361-5.834,0.489-8.752c0.298-5.837,0.562-11.673,0.768-17.51c0.102-2.919,0.245-5.838,0.313-8.755l0.245-8.754
	l0.229-8.755l0.113-6.527l57.505-33.714l5.597,3.181l7.547,4.198l7.551,4.183c2.51,1.406,5.06,2.746,7.588,4.122
	c5.055,2.755,10.139,5.454,15.241,8.125c2.54,1.353,5.115,2.644,7.675,3.971c2.558,1.327,5.151,2.583,7.725,3.877
	c0,0-0.002-0.001-0.002-0.003c0,0.002,0.002,0.002,0.002,0.002c-0.317-0.219-0.639-0.439-0.958-0.661
	c-2.059-1.417-4.107-2.852-6.186-4.236c-2.4-1.601-4.78-3.236-7.197-4.809c-4.813-3.18-9.642-6.331-14.502-9.431
	c-2.428-1.547-4.837-3.133-7.283-4.653l-7.317-4.594l-7.327-4.58l-5.728-3.507l0.098-66.762L855.884,592.004z M787.479,695.314
	l-56.502-33.347l0.098-66.528l56.599-33.184l2.218,1.309l3.806,2.331c2.451,1.513,4.938,2.965,7.402,4.446l14.826,8.859
	l10.169,5.927l4.751,2.769c2.49,1.441,4.962,2.916,7.47,4.329l3.757,2.137l2.104,1.242l-0.098,66.528l-2.093,1.227l-3.778,2.133
	c-2.512,1.405-4.989,2.873-7.484,4.309l-8.616,4.993l-6.323,3.66l-14.854,8.812c-2.469,1.477-4.96,2.92-7.412,4.426l-3.798,2.312
	L787.479,695.314z"/>
<g>
	<g>
		<polygon fill="none" stroke="#BF272D" stroke-width="5" stroke-miterlimit="10" points="669.317,279.007 728.904,244.073 
			788.388,279.181 788.286,349.223 728.7,384.157 669.215,349.049 		"/>
		<g>
			<path fill="#BF272D" d="M847.977,244.519c-2.402,1.585-4.786,3.197-7.201,4.76l-7.245,4.691l-7.273,4.646l-7.306,4.594
				l-7.317,4.576l-7.35,4.525l-7.352,4.521l-7.388,4.461l-1.131,0.683l-1.191-0.686c-4.991-2.87-10.011-5.7-14.967-8.625
				l-14.911-8.714l-14.839-8.829l-7.414-4.421l-7.377-4.485l-1.107-0.673l0.021-1.203c0.098-5.836,0.151-11.673,0.317-17.51
				c0.151-5.836,0.259-11.674,0.476-17.51l0.292-8.754l0.365-8.754l0.419-8.754c0.133-2.918,0.34-5.836,0.508-8.754
				c0.158,2.919,0.357,5.837,0.482,8.756l0.393,8.755l0.341,8.755l0.265,8.755c0.201,5.836,0.292,11.673,0.424,17.511
				c0.148,5.837,0.187,11.673,0.267,17.511l-1.088-1.877l7.495,4.293l7.457,4.356l14.903,8.727l14.832,8.84
				c4.955,2.928,9.852,5.95,14.773,8.93l-2.32-0.003l7.509-4.271l7.546-4.213l7.547-4.209l7.582-4.156l7.591-4.14l7.624-4.088
				l7.652-4.043C842.831,247.144,845.412,245.845,847.977,244.519z"/>
		</g>
		<g>
			<path fill="#BF272D" d="M609.832,243.899c2.561,1.333,5.139,2.639,7.684,3.996l7.64,4.064l7.611,4.11l7.579,4.163l7.569,4.178
				l7.535,4.231l7.533,4.234l7.496,4.294l1.052,0.602l0.017,1.237l0.118,8.799c0.051,2.932,0.05,5.865,0.064,8.797l0.074,17.595
				l-0.082,17.597c-0.021,2.932-0.014,5.865-0.067,8.798l-0.123,8.798l-0.019,1.309l-1.148,0.587
				c-4.935,2.521-9.878,5.025-14.85,7.479l-7.445,3.704l-7.474,3.652l-7.485,3.633l-7.516,3.579c-2.5,1.203-5.029,2.354-7.541,3.534
				c-2.514,1.178-5.057,2.304-7.583,3.461c2.377-1.422,4.735-2.875,7.125-4.274c2.389-1.398,4.762-2.826,7.163-4.201l7.19-4.156
				l7.221-4.1l7.233-4.083l7.261-4.03c4.832-2.702,9.691-5.354,14.562-7.99l-1.166,1.896l-0.119-8.798
				c-0.053-2.933-0.041-5.865-0.061-8.797l-0.072-17.597l0.086-17.597c0.017-2.933,0.019-5.865,0.071-8.798l0.122-8.798l1.066,1.839
				l-7.375-4.484l-7.338-4.543l-7.336-4.546l-7.305-4.599l-7.292-4.615l-7.26-4.667l-7.23-4.713
				C614.609,247.11,612.229,245.491,609.832,243.899z"/>
		</g>
		<g>
			<path fill="#BF272D" d="M728.702,382.8c2.339-1.685,4.712-3.314,7.09-4.936c2.376-1.626,4.783-3.203,7.173-4.807l7.235-4.705
				c2.41-1.571,4.859-3.082,7.286-4.624c4.854-3.09,9.762-6.093,14.678-9.082c4.919-2.986,9.867-5.925,14.827-8.845l1.3-0.766
				l1.3,0.77c4.954,2.932,9.894,5.885,14.805,8.884c4.906,3.005,9.809,6.017,14.651,9.123c2.424,1.55,4.865,3.07,7.271,4.646
				l7.223,4.727c2.385,1.612,4.787,3.197,7.157,4.83c2.373,1.629,4.74,3.267,7.074,4.959c-2.624-1.234-5.215-2.521-7.799-3.817
				c-2.586-1.292-5.142-2.633-7.714-3.948l-7.649-4.051c-2.55-1.35-5.062-2.756-7.597-4.13c-5.072-2.745-10.083-5.586-15.092-8.431
				c-5.003-2.854-9.976-5.752-14.937-8.672l2.6,0.004c-4.971,2.903-9.954,5.786-14.966,8.624
				c-5.015,2.833-10.037,5.652-15.115,8.386c-2.538,1.367-5.056,2.769-7.611,4.108l-7.661,4.028
				c-2.574,1.308-5.134,2.644-7.723,3.928C733.921,380.292,731.329,381.573,728.702,382.8z"/>
		</g>
	</g>
</g>
<g>
	<g>
		<g>
			<path fill="#2CA8DF" d="M252.448,244.812c-2.401,1.585-4.786,3.197-7.201,4.76l-7.244,4.692l-7.272,4.646l-7.306,4.594
				l-7.316,4.577l-7.349,4.525l-7.351,4.521l-7.389,4.462l-1.129,0.683l-1.192-0.686c-4.992-2.87-10.009-5.7-14.967-8.625
				l-14.912-8.714l-14.839-8.829l-7.414-4.421l-7.375-4.485l-1.108-0.673l0.02-1.204c0.098-5.836,0.153-11.673,0.317-17.51
				c0.15-5.837,0.258-11.673,0.476-17.51l0.292-8.754l0.365-8.754l0.418-8.754c0.133-2.917,0.342-5.836,0.509-8.754
				c0.159,2.918,0.358,5.837,0.483,8.755l0.393,8.755l0.34,8.755l0.265,8.755c0.201,5.837,0.292,11.673,0.425,17.512
				c0.149,5.837,0.187,11.673,0.267,17.511l-1.089-1.876l7.498,4.293l7.457,4.356l14.904,8.726l14.831,8.84
				c4.957,2.927,9.854,5.949,14.776,8.93l-2.321-0.003l7.508-4.271l7.546-4.213l7.548-4.209l7.582-4.156l7.59-4.14l7.624-4.088
				l7.652-4.043C247.302,247.438,249.883,246.139,252.448,244.812z"/>
		</g>
		<g>
			<path fill="#2CA8DF" d="M73.789,279.302c0.279,2.919,0.488,5.837,0.688,8.757c0.202,2.919,0.35,5.837,0.527,8.756l0.401,8.755
				c0.076,1.46,0.103,2.919,0.158,4.379l0.141,4.377c0.216,5.837,0.297,11.675,0.392,17.511c0.07,5.837,0.1,11.674,0.087,17.511
				l-0.003,1.362l-1.198,0.696l-7.468,4.334l-7.502,4.281l-7.535,4.228c-2.513,1.409-5.049,2.777-7.582,4.154
				c-2.539,1.367-5.051,2.774-7.611,4.108l-7.659,4.031c-2.575,1.309-5.131,2.648-7.723,3.932c-2.586,1.292-5.178,2.574-7.801,3.805
				c2.341-1.681,4.715-3.31,7.095-4.929c2.375-1.627,4.785-3.199,7.175-4.801l7.237-4.703c2.407-1.578,4.858-3.081,7.286-4.625
				c2.434-1.534,4.861-3.077,7.315-4.577l7.361-4.506l7.395-4.452l7.428-4.4l-1.201,2.058c0.005-5.837,0.051-11.674,0.139-17.511
				c0.111-5.836,0.21-11.674,0.442-17.51l0.155-4.377c0.057-1.459,0.089-2.918,0.17-4.379l0.426-8.753
				c0.187-2.919,0.343-5.836,0.553-8.755C73.284,285.138,73.501,282.22,73.789,279.302z"/>
		</g>
		<g>
			<path fill="#2CA8DF" d="M133.072,454.223c-0.158-2.92-0.355-5.837-0.48-8.756l-0.391-8.755l-0.34-8.755l-0.264-8.755
				c-0.084-2.918-0.186-5.838-0.237-8.755l-0.186-8.756c-0.06-2.917-0.138-5.837-0.162-8.754l-0.106-8.756l-0.016-1.199l1.105-0.67
				c4.919-2.986,9.852-5.95,14.813-8.866l14.862-8.789l14.937-8.67c2.49-1.442,4.974-2.9,7.483-4.313l7.508-4.271l1.197-0.681
				l1.13,0.685c4.922,2.98,9.833,5.979,14.713,9.025l7.335,4.547l7.304,4.598l7.292,4.616l7.258,4.669
				c2.426,1.547,4.82,3.144,7.23,4.712c2.412,1.569,4.79,3.191,7.187,4.784c-2.561-1.333-5.14-2.638-7.686-3.995
				s-5.109-2.686-7.641-4.064l-7.613-4.108l-7.579-4.162l-7.568-4.178l-7.536-4.23c-5.034-2.804-10.037-5.658-15.029-8.529
				l2.327,0.003l-7.387,4.464c-2.458,1.497-4.941,2.951-7.415,4.42l-14.856,8.796l-14.932,8.678
				c-4.97,2.906-9.967,5.765-14.98,8.602l1.09-1.869l-0.132,8.756c-0.033,2.917-0.12,5.836-0.188,8.754l-0.211,8.755
				c-0.06,2.917-0.17,5.836-0.263,8.754l-0.289,8.754l-0.364,8.754l-0.417,8.754C133.443,448.387,133.237,451.304,133.072,454.223z"
				/>
		</g>
		<polygon fill="none" stroke="#2CA8DF" stroke-width="5" stroke-miterlimit="10" points="73.789,279.302 133.375,244.368 
			192.859,279.476 192.757,349.52 133.17,384.454 73.686,349.346 		"/>
	</g>
	<g>
		<g opacity="0.3">
			<path d="M124.523,355.434"/>
		</g>
		<g>
			<g>
				<path fill="#969696" d="M124.526,353.502"/>
			</g>
		</g>
	</g>
</g>
<polyline fill="none" stroke="#BF272D" stroke-width="3" stroke-miterlimit="10" points="789.243,559.192 848.729,594.301 
	856.937,902 "/>
<polyline fill="none" stroke="#BF272D" stroke-width="3" stroke-miterlimit="10" points="490.442,380.599 550.028,345.665 
	609.512,380.772 609.41,450.815 668.896,485.65 728.484,450.99 728.587,380.946 "/>
<polyline fill="none" stroke="#2CA8DF" stroke-width="3" stroke-miterlimit="10" points="192.757,349.52 252.245,384.354 
	311.833,349.694 371.316,384.527 371.216,453.214 "/>
<path fill="none" stroke="#2CA8DF" stroke-width="3" stroke-miterlimit="10" d="M16.3,1.351L15.205,245.15
	c0,0,38.914,23.318,59.042,34.297"/>
<polyline fill="none" stroke="#BF272D" stroke-width="3" stroke-miterlimit="10" points="729.106,450.84 788.587,488.322 
	787.816,558.887 "/>
<polyline fill="none" stroke="#BF272D" stroke-width="3" stroke-miterlimit="10" points="491.374,379.037 490.067,450.392 
	432.023,486.472 "/>
<g>
	
		<ellipse transform="matrix(0.0014 -1 1 0.0014 -205.3063 353.2902)" fill="#2CA8DF" cx="74.248" cy="279.447" rx="9.287" ry="9.115"/>
	
		<ellipse transform="matrix(0.0015 -1 1 0.0015 -205.3096 353.2787)" fill="#F1F1F1" cx="74.248" cy="279.447" rx="5.744" ry="5.637"/>
</g>
<g>
	
		<ellipse transform="matrix(0.0014 -1 1 0.0014 -56.0389 916.4523)" fill="#2CA8DF" cx="430.87" cy="486.286" rx="9.288" ry="9.114"/>
	
		<ellipse transform="matrix(0.0014 -1 1 0.0014 -56.0387 916.4525)" fill="#F1F1F1" cx="430.869" cy="486.286" rx="5.746" ry="5.638"/>
</g>
<g>
	
		<ellipse transform="matrix(0.0015 -1 1 0.0015 228.0406 1345.6071)" fill="#BF272D" cx="787.815" cy="558.615" rx="9.285" ry="9.114"/>
	
		<ellipse transform="matrix(0.0014 -1 1 0.0014 228.0624 1345.6226)" fill="#F1F1F1" cx="787.816" cy="558.615" rx="5.743" ry="5.638"/>
</g>
<line fill="none" x1="497.032" y1="449.309" x2="440.091" y2="482.694"/>
<line fill="none" x1="497.032" y1="449.309" x2="440.091" y2="482.694"/>
<path fill="none" stroke="#BF272D" stroke-width="3" stroke-miterlimit="10" d="M490.883,450.062"/>
<path fill="none" stroke="#BF272D" stroke-width="3" stroke-miterlimit="10" d="M432.023,486.472"/>
<path fill="none" stroke="#BF272D" stroke-width="3" stroke-miterlimit="10" d="M491.289,379.074"/>
<path fill="none" stroke="#BF272D" stroke-width="3" stroke-miterlimit="10" d="M490.266,449.7"/>
<path fill="#979797" d="M729.512,347.519c17.72,0.026,32.105-14.587,32.133-32.642c0.026-18.053-14.318-32.71-32.038-32.736
	c-17.718-0.026-32.104,14.588-32.131,32.643S711.796,347.493,729.512,347.519z M729.598,288.272
	c14.398,0.021,26.052,11.928,26.031,26.596c-0.022,14.669-11.711,26.543-26.108,26.522c-14.396-0.021-26.05-11.93-26.028-26.598
	C703.514,300.124,715.202,288.251,729.598,288.272z M747.632,298.514c1.104,0.001,2.005,0.921,2.003,2.044l-0.009,6.129
	c-0.004,2.248-1.812,4.084-4.018,4.081l-8.021-0.012c-2.205-0.003-4.009-1.845-4.005-4.092l-8.021-0.012
	c-0.004,2.248-1.813,4.084-4.019,4.081l-8.021-0.012c-2.206-0.003-4.008-1.845-4.004-4.092l0.009-6.129
	c0.002-1.124,0.903-2.041,2.007-2.04l12.033,0.019c1.102,0.001,2.005,0.921,2.003,2.044l-0.003,2.043l8.021,0.012l0.003-2.043
	c0.002-1.123,0.904-2.04,2.007-2.039L747.632,298.514z M729.535,331.175c5.842,0.008,10.958-3.165,13.771-7.914l3.436,2.105
	c-3.517,5.938-9.911,9.904-17.212,9.894c-3.035-0.004-5.913-0.698-8.49-1.932l2.083-3.527
	C725.087,330.68,727.255,331.172,729.535,331.175z"/>
<path fill="#979797" d="M115.208,315.284c0.001-0.709,0.043-1.41,0.12-2.099l-10.584-3.521c-0.34,1.815-0.523,3.688-0.526,5.604
	c-0.012,8.588,3.534,16.332,9.222,21.789l6.556-9.165C117.016,324.567,115.201,320.142,115.208,315.284z M151.845,315.337
	c-0.007,4.858-1.835,9.278-4.824,12.594l6.528,9.184c5.703-5.44,9.274-13.175,9.287-21.762c0.003-1.916-0.175-3.79-0.51-5.605
	l-10.593,3.49C151.806,313.927,151.846,314.628,151.845,315.337z M137.216,297.026c5.261,1.097,9.7,4.49,12.264,9.106l10.593-3.488
	c-4.177-9.073-12.7-15.654-22.84-16.957L137.216,297.026L137.216,297.026z M117.6,306.086c2.577-4.609,7.025-7.988,12.289-9.07
	l0.017-11.339c-10.145,1.272-18.686,7.83-22.89,16.889L117.6,306.086z M141.089,332.314c-2.312,1.07-4.882,1.663-7.59,1.659
	c-2.707-0.004-5.275-0.605-7.584-1.682l-6.556,9.166c4.187,2.359,9.001,3.708,14.125,3.716c5.125,0.008,9.942-1.328,14.135-3.674
	L141.089,332.314z"/>
<path fill="#F1F1F1" d="M200.295,666.246l7.339-4.558l7.333-4.572c2.45-1.511,4.864-3.092,7.299-4.635
	c4.866-3.081,9.705-6.219,14.527-9.388c2.42-1.564,4.806-3.19,7.21-4.786c2.082-1.378,4.137-2.805,6.201-4.218
	c0.318-0.22,0.639-0.441,0.959-0.659c0,0.001-0.003,0.001-0.003,0.001l0.003-0.001c-2.577,1.289-5.177,2.537-7.736,3.856
	c-2.561,1.313-5.142,2.598-7.685,3.947c-5.109,2.656-10.205,5.339-15.267,8.078c-2.532,1.369-5.084,2.704-7.6,4.101l-7.565,4.162
	l-7.556,4.175l-5.608,3.164l-57.404-33.88l-0.095-6.529l-0.202-8.752l-0.22-8.756c-0.06-2.922-0.195-5.839-0.291-8.756
	c-0.185-5.838-0.434-11.675-0.715-17.513c-0.118-2.918-0.31-5.836-0.462-8.757c-0.039-0.752-0.093-1.506-0.14-2.259
	c-0.135-2.165-0.287-4.332-0.424-6.498c0,0.008-0.001,0.013-0.001,0.018c0-0.005-0.001-0.01-0.001-0.018
	c-0.195,2.92-0.432,5.839-0.591,8.755c-0.164,2.919-0.362,5.837-0.489,8.755c-0.298,5.837-0.564,11.673-0.767,17.511
	c-0.103,2.917-0.246,5.833-0.315,8.754l-0.245,8.756l-0.229,8.752l-0.114,6.529l-56.941,33.386
	c-4.467-2.619-8.944-5.219-13.448-7.767c-5.017-2.823-10.035-5.64-15.124-8.334c-2.542-1.351-5.062-2.741-7.623-4.06l-7.682-3.957
	c-2.586-1.272-5.152-2.579-7.755-3.825c-2.601-1.252-5.206-2.489-7.851-3.658c2.313,1.757,4.664,3.442,7.021,5.119
	c2.353,1.678,4.745,3.297,7.115,4.949l7.19,4.822c2.396,1.606,4.834,3.141,7.249,4.717c4.826,3.155,9.721,6.19,14.621,9.219
	c4.411,2.715,8.851,5.379,13.302,8.022l-0.098,66.554c-4.459,2.631-8.907,5.282-13.327,7.983c-4.907,3.015-9.811,6.035-14.646,9.178
	c-2.419,1.567-4.862,3.097-7.264,4.697l-7.203,4.797c-2.375,1.646-4.77,3.258-7.129,4.933c-2.363,1.666-4.719,3.349-7.037,5.095
	c2.649-1.161,5.257-2.392,7.862-3.636c2.604-1.234,5.176-2.536,7.767-3.802l7.692-3.933c2.565-1.312,5.088-2.693,7.634-4.038
	c5.098-2.679,10.125-5.482,15.149-8.29c4.513-2.537,8.998-5.12,13.471-7.726l56.846,33.55l0.095,6.527l0.203,8.758l0.221,8.752
	c0.059,2.921,0.194,5.839,0.289,8.757c0.186,5.838,0.435,11.676,0.716,17.512c0.119,2.917,0.309,5.838,0.463,8.755
	c0.15,2.919,0.379,5.838,0.565,8.757c0-0.007,0.001-0.012,0.001-0.017c0,0.005,0.001,0.012,0.001,0.017
	c0.084-1.275,0.177-2.555,0.268-3.828c0.118-1.644,0.232-3.284,0.321-4.928c0.161-2.917,0.361-5.837,0.488-8.754
	c0.297-5.835,0.563-11.672,0.766-17.51c0.103-2.918,0.247-5.835,0.316-8.756l0.245-8.751l0.229-8.757l0.113-6.527l57.505-33.713
	l5.598,3.181l7.544,4.2l7.553,4.179c2.51,1.408,5.059,2.747,7.588,4.125c5.053,2.754,10.138,5.455,15.243,8.124
	c2.539,1.353,5.114,2.645,7.673,3.969c2.558,1.326,5.151,2.585,7.725,3.878c0,0-0.002,0-0.002-0.002l0.002,0.002
	c-0.319-0.218-0.639-0.438-0.957-0.661c-2.061-1.419-4.11-2.852-6.188-4.235c-2.399-1.604-4.781-3.236-7.196-4.809
	c-4.814-3.181-9.64-6.334-14.501-9.43c-2.429-1.552-4.837-3.135-7.284-4.657l-7.319-4.594l-7.328-4.577l-5.725-3.508l0.098-66.761
	L200.295,666.246z M131.891,769.558l-56.501-33.347l0.098-66.528l56.598-33.185l2.218,1.311l3.805,2.331
	c2.451,1.512,4.936,2.965,7.402,4.446l14.827,8.857l10.169,5.926l4.75,2.77c2.491,1.441,4.962,2.916,7.47,4.331l3.758,2.134
	l2.104,1.244l-0.097,66.528l-2.091,1.227l-3.782,2.132c-2.511,1.407-4.985,2.874-7.482,4.309l-8.619,4.991l-6.323,3.663
	l-14.854,8.81c-2.47,1.481-4.959,2.924-7.413,4.429l-3.798,2.312L131.891,769.558z"/>
</svg>
